<svg id="svg" version="1.1" xmlns="http://www.w3.org/2000/svg" xmlns:xlink="http://www.w3.org/1999/xlink" width="400" height="142.54545454545453" viewBox="0, 0, 400,142.54545454545453"><g id="svgg"><path id="path0" d="M73.562 54.998 C 70.479 55.324,67.044 56.027,62.792 57.201 L 62.167 57.374 62.167 58.589 L 62.167 59.803 63.125 59.573 C 69.596 58.020,78.002 58.570,79.899 60.670 C 81.208 62.117,80.913 63.231,78.491 66.000 C 76.505 68.270,76.370 69.032,77.706 70.445 L 78.206 70.973 76.312 73.112 C 75.270 74.288,74.336 75.336,74.238 75.441 C 74.139 75.547,72.793 77.069,71.248 78.825 L 68.439 82.018 68.011 81.477 C 67.776 81.180,67.506 80.834,67.411 80.708 C 67.277 80.530,64.015 83.716,52.620 95.152 L 38.000 109.825 38.000 111.412 L 38.000 113.000 45.573 113.000 C 50.524 113.000,53.183 112.941,53.252 112.831 C 53.309 112.737,53.421 112.701,53.500 112.750 C 53.578 112.798,53.667 112.693,53.696 112.516 C 53.767 112.095,57.975 106.999,58.214 107.047 C 58.314 107.067,58.426 106.933,58.462 106.750 C 58.499 106.567,58.622 106.342,58.737 106.250 C 58.852 106.158,58.990 105.971,59.043 105.833 C 59.118 105.641,59.143 105.655,59.154 105.893 C 59.162 106.091,59.253 106.169,59.406 106.110 C 59.560 106.052,59.674 106.150,59.724 106.384 C 59.767 106.585,59.795 106.316,59.787 105.785 L 59.772 104.820 61.601 102.619 C 62.608 101.407,64.547 99.067,65.912 97.417 C 70.040 92.426,72.351 89.639,73.282 88.528 C 74.323 87.287,74.358 87.049,73.582 86.520 C 72.724 85.936,72.622 86.085,77.759 80.417 C 82.609 75.065,82.697 74.985,83.260 75.411 C 83.921 75.911,84.542 75.730,85.852 74.657 C 87.736 73.113,89.264 72.436,90.888 72.425 L 92.192 72.417 93.574 73.844 C 95.558 75.896,95.837 76.370,95.952 77.894 L 96.047 79.153 97.149 80.208 C 99.313 82.283,99.361 82.291,100.690 80.858 C 101.170 80.340,102.130 79.314,102.823 78.577 C 106.318 74.863,106.229 75.152,104.398 73.438 C 103.134 72.255,103.124 72.250,101.987 72.143 C 99.117 71.873,97.437 70.180,96.823 66.943 C 96.371 64.559,96.213 64.245,94.786 62.889 C 91.334 59.610,86.442 56.224,84.360 55.671 C 81.916 55.022,76.515 54.686,73.562 54.998 M152.417 70.144 C 149.342 70.579,146.687 72.810,145.634 75.842 C 145.101 77.379,145.050 86.669,145.566 88.167 C 147.739 94.458,156.177 96.328,160.914 91.568 C 162.936 89.535,163.500 87.574,163.500 82.571 L 163.500 80.167 158.750 80.167 L 154.000 80.167 154.000 82.667 L 154.000 85.167 155.750 85.167 C 157.168 85.167,157.500 85.213,157.500 85.408 C 157.500 89.371,152.026 90.155,151.352 86.288 C 150.817 83.217,151.208 77.377,152.016 76.361 C 153.348 74.687,156.447 75.292,157.178 77.368 L 157.395 77.986 160.380 78.035 C 163.831 78.091,163.565 78.217,163.179 76.713 C 161.955 71.954,157.752 69.389,152.417 70.144 M172.917 70.174 C 170.134 70.530,167.804 72.196,166.733 74.596 C 165.775 76.744,166.155 80.656,167.450 81.970 C 167.569 82.091,167.667 82.243,167.667 82.306 C 167.667 83.119,172.755 84.833,175.166 84.833 C 176.883 84.833,177.987 86.620,177.001 87.802 C 175.808 89.233,170.991 89.016,169.306 87.454 L 168.866 87.046 166.937 88.981 C 165.877 90.046,165.063 90.992,165.130 91.083 C 167.314 94.108,174.915 95.118,179.295 92.967 C 182.037 91.619,183.084 89.808,183.081 86.417 C 183.077 81.672,181.409 80.079,175.583 79.257 C 172.678 78.847,172.000 78.465,172.000 77.240 C 172.000 75.178,176.483 74.579,178.723 76.342 L 179.197 76.714 181.015 74.902 C 183.160 72.763,183.117 72.939,181.742 71.929 C 179.610 70.365,176.406 69.727,172.917 70.174 M125.167 82.083 L 125.167 94.000 128.167 94.000 L 131.167 94.000 131.167 89.833 L 131.167 85.667 133.125 85.664 C 140.126 85.654,144.139 81.261,142.363 75.552 C 141.024 71.251,138.608 70.167,130.364 70.167 L 125.167 70.167 125.167 82.083 M136.001 76.308 C 136.915 77.223,136.927 78.401,136.031 79.361 L 135.357 80.083 133.262 80.142 L 131.167 80.201 131.167 77.921 L 131.167 75.640 133.305 75.695 L 135.443 75.750 136.001 76.308 M193.283 79.907 C 191.745 80.456,190.530 81.715,190.082 83.224 C 189.711 84.472,189.735 89.407,190.117 90.619 C 191.703 95.651,199.920 94.965,200.525 89.750 L 200.583 89.250 198.789 89.203 C 197.192 89.161,196.982 89.188,196.886 89.453 C 196.390 90.827,194.753 91.192,193.868 90.126 C 193.220 89.344,193.287 84.423,193.958 83.521 C 194.635 82.612,196.833 83.059,196.833 84.106 C 196.833 84.285,197.241 84.333,198.737 84.333 L 200.640 84.333 200.476 83.708 C 199.655 80.580,196.328 78.821,193.283 79.907 M205.305 79.892 C 202.581 80.742,201.792 82.395,201.865 87.092 C 201.944 92.152,203.209 93.885,206.971 94.086 C 211.129 94.307,213.081 91.153,212.531 85.101 C 212.144 80.844,209.157 78.691,205.305 79.892 M231.649 79.740 C 231.609 79.780,231.369 79.851,231.115 79.897 C 229.193 80.245,227.912 82.041,227.924 84.371 C 227.937 86.848,229.121 87.928,232.352 88.411 C 234.322 88.705,234.961 89.306,234.287 90.227 C 233.783 90.917,231.446 90.916,230.177 90.225 L 229.437 89.822 228.305 90.945 L 227.173 92.068 227.545 92.467 C 228.890 93.911,232.455 94.538,234.796 93.743 C 239.466 92.158,239.247 85.901,234.500 85.270 C 231.982 84.934,231.790 84.876,231.512 84.356 C 230.822 83.067,233.441 82.342,235.150 83.351 L 235.724 83.689 236.786 82.627 C 238.005 81.409,238.015 81.218,236.899 80.564 C 235.701 79.862,232.093 79.295,231.649 79.740 M280.750 79.823 C 279.666 80.086,277.833 81.415,277.833 81.936 C 277.833 82.063,277.771 82.167,277.694 82.167 C 276.785 82.167,276.740 90.015,277.641 91.500 C 280.074 95.513,286.224 94.739,287.575 90.249 C 287.901 89.168,287.898 89.167,285.903 89.167 C 284.191 89.167,284.155 89.174,283.998 89.588 C 283.456 91.014,281.502 91.148,280.919 89.798 C 280.511 88.853,280.647 84.161,281.100 83.553 C 281.812 82.597,284.000 83.016,284.000 84.108 C 284.000 84.284,284.419 84.333,285.934 84.333 C 287.709 84.333,287.860 84.309,287.756 84.042 C 287.694 83.881,287.599 83.525,287.545 83.250 C 287.050 80.747,283.764 79.089,280.750 79.823 M309.917 79.859 C 308.485 80.333,307.586 81.109,306.901 82.461 C 305.988 84.263,306.111 90.110,307.094 91.667 C 309.206 95.011,314.605 94.866,316.454 91.417 C 317.439 89.580,317.410 83.740,316.408 82.153 C 315.146 80.154,312.184 79.107,309.917 79.859 M360.750 79.823 C 359.722 80.073,358.690 80.819,357.798 81.958 C 356.894 83.112,356.645 89.303,357.434 91.008 C 359.538 95.556,366.376 94.947,367.650 90.099 C 367.889 89.188,367.850 89.167,365.927 89.167 L 364.207 89.167 364.005 89.655 C 363.527 90.808,362.056 91.132,361.197 90.273 L 360.750 89.826 360.750 86.925 C 360.750 84.239,360.776 83.990,361.100 83.554 C 361.812 82.597,364.000 83.015,364.000 84.108 C 364.000 84.284,364.419 84.333,365.934 84.333 C 367.709 84.333,367.860 84.309,367.756 84.042 C 367.694 83.881,367.599 83.525,367.545 83.250 C 367.049 80.740,363.772 79.087,360.750 79.823 M214.707 86.875 L 214.750 93.917 216.542 93.964 L 218.333 94.011 218.333 90.556 L 218.333 87.101 218.867 87.926 C 219.160 88.379,219.516 88.947,219.658 89.189 C 219.800 89.430,220.554 90.610,221.333 91.811 L 222.750 93.995 224.292 93.997 L 225.833 94.000 225.833 86.917 L 225.833 79.833 224.000 79.833 L 222.167 79.833 222.166 83.042 L 222.165 86.250 221.755 85.750 C 221.530 85.475,221.343 85.190,221.339 85.116 C 221.334 84.993,220.663 83.933,218.709 80.958 L 217.970 79.833 216.316 79.833 L 214.663 79.833 214.707 86.875 M239.333 81.417 L 239.333 83.000 240.998 83.000 L 242.662 83.000 242.706 88.458 L 242.750 93.917 244.583 93.917 L 246.417 93.917 246.461 88.458 L 246.505 83.000 248.169 83.000 L 249.833 83.000 249.833 81.417 L 249.833 79.833 244.583 79.833 L 239.333 79.833 239.333 81.417 M251.667 86.917 L 251.667 94.011 253.458 93.964 L 255.250 93.917 255.296 91.281 L 255.342 88.645 255.794 88.698 C 256.188 88.743,256.352 88.968,257.050 90.417 C 257.492 91.333,258.055 92.496,258.302 93.000 L 258.750 93.917 260.656 93.964 C 261.705 93.990,262.658 93.975,262.774 93.930 C 262.989 93.848,262.768 93.374,260.793 89.681 C 259.990 88.181,259.967 88.103,260.268 87.887 C 263.073 85.872,262.715 81.677,259.615 80.241 C 258.835 79.880,258.573 79.856,255.226 79.840 L 251.667 79.822 251.667 86.917 M264.169 84.625 C 264.171 90.512,264.374 91.497,265.839 92.729 C 268.818 95.236,273.526 94.137,274.757 90.648 C 274.950 90.101,275.000 88.907,275.000 84.896 L 275.000 79.833 273.174 79.833 L 271.347 79.833 271.299 84.820 C 271.241 90.747,271.071 91.194,269.088 90.647 C 267.878 90.313,267.865 90.244,267.847 84.375 L 267.833 79.833 266.000 79.833 L 264.167 79.833 264.169 84.625 M288.167 81.417 L 288.167 83.000 289.833 83.000 L 291.500 83.000 291.500 88.236 C 291.500 94.621,291.292 94.000,293.434 94.000 L 295.167 94.000 295.167 88.500 L 295.167 83.000 296.917 83.000 L 298.667 83.000 298.667 81.417 L 298.667 79.833 293.417 79.833 L 288.167 79.833 288.167 81.417 M300.500 86.917 L 300.500 94.000 302.333 94.000 L 304.167 94.000 304.167 86.917 L 304.167 79.833 302.333 79.833 L 300.500 79.833 300.500 86.917 M319.333 86.922 L 319.333 94.011 321.125 93.964 L 322.917 93.917 323.000 90.643 L 323.083 87.368 325.167 90.684 L 327.250 94.001 328.833 93.959 L 330.417 93.917 330.460 86.875 L 330.504 79.833 328.585 79.833 L 326.667 79.833 326.664 83.042 L 326.662 86.250 325.622 84.651 C 325.051 83.772,324.133 82.331,323.583 81.449 L 322.583 79.846 320.958 79.840 L 319.333 79.833 319.333 86.922 M337.373 86.875 L 337.417 93.917 339.208 93.964 L 341.000 94.011 341.000 86.922 L 341.000 79.833 339.165 79.833 L 337.330 79.833 337.373 86.875 M343.667 86.917 L 343.667 94.000 345.497 94.000 L 347.326 94.000 347.372 90.660 L 347.417 87.319 349.320 90.368 C 351.815 94.366,351.417 94.000,353.276 94.000 L 354.833 94.000 354.833 86.917 L 354.833 79.833 353.000 79.833 L 351.167 79.833 351.162 83.208 C 351.158 85.735,351.111 86.500,350.975 86.250 C 350.876 86.067,350.626 85.654,350.421 85.333 C 350.052 84.758,349.125 83.297,347.674 81.006 L 346.931 79.833 345.299 79.833 L 343.667 79.833 343.667 86.917 M208.169 83.214 C 209.166 84.017,209.298 89.040,208.351 90.174 C 206.479 92.416,204.688 88.948,205.502 84.656 C 205.779 83.197,207.196 82.430,208.169 83.214 M257.987 83.431 C 259.189 84.443,258.362 85.667,256.476 85.667 L 255.333 85.667 255.333 84.333 L 255.333 83.000 256.404 83.000 C 257.312 83.000,257.552 83.065,257.987 83.431 M312.902 83.416 C 313.571 84.138,313.681 88.968,313.051 89.972 C 312.503 90.847,311.180 90.974,310.471 90.220 C 309.857 89.566,309.870 84.087,310.487 83.430 C 311.061 82.820,312.342 82.812,312.902 83.416 M97.208 83.282 C 97.369 83.323,97.631 83.323,97.792 83.282 C 97.952 83.240,97.821 83.205,97.500 83.205 C 97.179 83.205,97.048 83.240,97.208 83.282 M97.208 83.615 C 97.369 83.657,97.631 83.657,97.792 83.615 C 97.952 83.573,97.821 83.539,97.500 83.539 C 97.179 83.539,97.048 83.573,97.208 83.615 M104.833 83.667 C 104.833 83.758,105.021 83.833,105.250 83.833 C 105.479 83.833,105.667 83.758,105.667 83.667 C 105.667 83.575,105.479 83.500,105.250 83.500 C 105.021 83.500,104.833 83.575,104.833 83.667 M97.377 84.286 C 97.631 84.325,98.006 84.324,98.211 84.284 C 98.416 84.244,98.208 84.213,97.750 84.214 C 97.292 84.216,97.124 84.248,97.377 84.286 M97.000 84.833 C 97.000 85.093,97.111 85.167,97.500 85.167 C 97.889 85.167,98.000 85.093,98.000 84.833 C 98.000 84.574,97.889 84.500,97.500 84.500 C 97.111 84.500,97.000 84.574,97.000 84.833 M105.042 85.115 C 105.202 85.157,105.465 85.157,105.625 85.115 C 105.785 85.073,105.654 85.039,105.333 85.039 C 105.013 85.039,104.881 85.073,105.042 85.115 M97.208 85.448 C 97.369 85.490,97.631 85.490,97.792 85.448 C 97.952 85.406,97.821 85.372,97.500 85.372 C 97.179 85.372,97.048 85.406,97.208 85.448 M97.208 85.948 C 97.369 85.990,97.631 85.990,97.792 85.948 C 97.952 85.906,97.821 85.872,97.500 85.872 C 97.179 85.872,97.048 85.906,97.208 85.948 M104.960 85.951 C 105.168 85.991,105.468 85.990,105.627 85.948 C 105.786 85.906,105.617 85.874,105.250 85.875 C 104.883 85.877,104.753 85.911,104.960 85.951 M97.208 86.282 C 97.369 86.323,97.631 86.323,97.792 86.282 C 97.952 86.240,97.821 86.205,97.500 86.205 C 97.179 86.205,97.048 86.240,97.208 86.282 M104.750 86.667 C 104.807 86.758,105.032 86.833,105.250 86.833 C 105.468 86.833,105.693 86.758,105.750 86.667 C 105.811 86.567,105.610 86.500,105.250 86.500 C 104.890 86.500,104.689 86.567,104.750 86.667 M97.208 86.948 C 97.369 86.990,97.631 86.990,97.792 86.948 C 97.952 86.906,97.821 86.872,97.500 86.872 C 97.179 86.872,97.048 86.906,97.208 86.948 M97.000 87.333 C 97.000 87.534,97.784 87.534,98.250 87.333 C 98.501 87.226,98.387 87.187,97.792 87.178 C 97.356 87.172,97.000 87.242,97.000 87.333 M104.750 87.333 C 104.689 87.433,104.890 87.500,105.250 87.500 C 105.610 87.500,105.811 87.433,105.750 87.333 C 105.693 87.242,105.468 87.167,105.250 87.167 C 105.032 87.167,104.807 87.242,104.750 87.333 M97.208 87.782 C 97.369 87.823,97.631 87.823,97.792 87.782 C 97.952 87.740,97.821 87.705,97.500 87.705 C 97.179 87.705,97.048 87.740,97.208 87.782 M97.000 88.523 L 97.000 89.045 97.773 88.939 C 98.199 88.881,98.649 88.833,98.773 88.833 C 98.898 88.833,99.000 88.758,99.000 88.667 C 99.000 88.575,98.775 88.500,98.500 88.500 C 98.167 88.500,98.000 88.417,98.000 88.250 C 98.000 88.083,97.833 88.000,97.500 88.000 C 97.051 88.000,97.000 88.053,97.000 88.523 M97.208 89.615 C 97.369 89.657,97.631 89.657,97.792 89.615 C 97.952 89.573,97.821 89.539,97.500 89.539 C 97.179 89.539,97.048 89.573,97.208 89.615 M97.000 90.000 C 97.000 90.092,97.356 90.161,97.792 90.155 C 98.387 90.146,98.501 90.108,98.250 90.000 C 97.784 89.800,97.000 89.800,97.000 90.000 M369.072 90.387 C 369.025 90.508,369.009 91.352,369.035 92.262 L 369.083 93.917 370.958 93.964 L 372.833 94.011 372.833 92.089 L 372.833 90.167 370.995 90.167 C 369.625 90.167,369.135 90.223,369.072 90.387 M97.208 90.448 C 97.369 90.490,97.631 90.490,97.792 90.448 C 97.952 90.406,97.821 90.372,97.500 90.372 C 97.179 90.372,97.048 90.406,97.208 90.448 M97.000 91.000 C 97.000 91.259,97.111 91.333,97.500 91.333 C 97.889 91.333,98.000 91.259,98.000 91.000 C 98.000 90.741,97.889 90.667,97.500 90.667 C 97.111 90.667,97.000 90.741,97.000 91.000 M97.458 91.621 C 97.756 91.658,98.244 91.658,98.542 91.621 C 98.840 91.584,98.596 91.553,98.000 91.553 C 97.404 91.553,97.160 91.584,97.458 91.621 M104.750 91.833 C 104.689 91.933,104.890 92.000,105.250 92.000 C 105.610 92.000,105.811 91.933,105.750 91.833 C 105.693 91.742,105.468 91.667,105.250 91.667 C 105.032 91.667,104.807 91.742,104.750 91.833 M97.208 92.282 C 97.369 92.323,97.631 92.323,97.792 92.282 C 97.952 92.240,97.821 92.205,97.500 92.205 C 97.179 92.205,97.048 92.240,97.208 92.282 M97.000 92.833 C 97.000 93.123,97.105 93.164,97.792 93.147 C 98.227 93.137,98.452 93.094,98.292 93.052 C 98.131 93.010,98.000 92.869,98.000 92.738 C 98.000 92.585,97.822 92.500,97.500 92.500 C 97.111 92.500,97.000 92.574,97.000 92.833 M104.833 93.333 C 104.833 93.425,105.063 93.500,105.343 93.500 C 105.641 93.500,105.810 93.431,105.750 93.333 C 105.693 93.242,105.464 93.167,105.240 93.167 C 105.016 93.167,104.833 93.242,104.833 93.333 M97.000 93.500 C 97.000 93.592,97.206 93.676,97.458 93.686 L 97.917 93.706 97.417 93.833 L 96.917 93.961 97.458 93.980 C 97.895 93.996,98.000 93.936,98.000 93.667 C 98.000 93.407,97.889 93.333,97.500 93.333 C 97.225 93.333,97.000 93.408,97.000 93.500 M97.208 94.282 C 97.369 94.323,97.631 94.323,97.792 94.282 C 97.952 94.240,97.821 94.205,97.500 94.205 C 97.179 94.205,97.048 94.240,97.208 94.282 M97.208 94.948 C 97.369 94.990,97.631 94.990,97.792 94.948 C 97.952 94.906,97.821 94.872,97.500 94.872 C 97.179 94.872,97.048 94.906,97.208 94.948 M97.000 95.333 C 97.000 95.425,97.225 95.500,97.500 95.500 C 97.775 95.500,98.000 95.425,98.000 95.333 C 98.000 95.242,97.775 95.167,97.500 95.167 C 97.225 95.167,97.000 95.242,97.000 95.333 M104.960 95.618 C 105.168 95.658,105.468 95.656,105.627 95.615 C 105.786 95.573,105.617 95.540,105.250 95.542 C 104.883 95.544,104.753 95.578,104.960 95.618 M97.208 95.782 C 97.369 95.823,97.631 95.823,97.792 95.782 C 97.952 95.740,97.821 95.705,97.500 95.705 C 97.179 95.705,97.048 95.740,97.208 95.782 M97.377 96.120 C 97.631 96.158,98.006 96.157,98.211 96.117 C 98.416 96.078,98.208 96.046,97.750 96.048 C 97.292 96.049,97.124 96.081,97.377 96.120 M104.333 96.333 C 104.333 96.425,104.671 96.500,105.083 96.500 C 105.496 96.500,105.833 96.425,105.833 96.333 C 105.833 96.242,105.496 96.167,105.083 96.167 C 104.671 96.167,104.333 96.242,104.333 96.333 M97.000 96.667 C 97.000 96.926,97.111 97.000,97.500 97.000 C 97.889 97.000,98.000 96.926,98.000 96.667 C 98.000 96.407,97.889 96.333,97.500 96.333 C 97.111 96.333,97.000 96.407,97.000 96.667 M104.960 97.118 C 105.168 97.158,105.468 97.156,105.627 97.115 C 105.786 97.073,105.617 97.040,105.250 97.042 C 104.883 97.044,104.753 97.078,104.960 97.118 M97.458 97.621 C 97.756 97.658,98.244 97.658,98.542 97.621 C 98.840 97.584,98.596 97.553,98.000 97.553 C 97.404 97.553,97.160 97.584,97.458 97.621 M104.833 97.833 C 104.833 97.925,105.021 98.000,105.250 98.000 C 105.479 98.000,105.667 97.925,105.667 97.833 C 105.667 97.742,105.479 97.667,105.250 97.667 C 105.021 97.667,104.833 97.742,104.833 97.833 M97.000 98.000 C 97.000 98.092,97.225 98.167,97.500 98.167 C 97.775 98.167,98.000 98.092,98.000 98.000 C 98.000 97.908,97.775 97.833,97.500 97.833 C 97.225 97.833,97.000 97.908,97.000 98.000 M285.010 99.208 C 284.713 99.873,284.429 100.514,284.380 100.634 C 284.311 100.801,284.514 100.840,285.254 100.801 L 286.218 100.750 287.109 99.449 C 287.599 98.733,288.000 98.114,288.000 98.074 C 288.000 98.033,287.449 98.000,286.775 98.000 L 285.550 98.000 285.010 99.208 M303.667 98.167 C 303.667 98.260,303.473 98.728,303.237 99.209 C 302.391 100.932,302.377 100.834,303.462 100.830 L 304.417 100.826 305.292 99.512 C 306.375 97.884,306.404 98.000,304.917 98.000 C 304.190 98.000,303.667 98.070,303.667 98.167 M43.162 99.292 L 42.083 100.417 43.208 99.338 C 44.253 98.336,44.410 98.167,44.287 98.167 C 44.261 98.167,43.755 98.673,43.162 99.292 M97.208 98.448 C 97.369 98.490,97.631 98.490,97.792 98.448 C 97.952 98.406,97.821 98.372,97.500 98.372 C 97.179 98.372,97.048 98.406,97.208 98.448 M97.000 99.167 C 97.000 99.611,97.056 99.667,97.500 99.667 C 97.822 99.667,98.000 99.582,98.000 99.429 C 98.000 99.298,98.131 99.157,98.292 99.115 C 98.569 99.042,98.569 99.038,98.292 99.019 C 98.131 99.009,98.000 98.925,98.000 98.833 C 98.000 98.742,97.775 98.667,97.500 98.667 C 97.056 98.667,97.000 98.722,97.000 99.167 M104.960 99.285 C 105.168 99.324,105.468 99.323,105.627 99.281 C 105.786 99.239,105.617 99.207,105.250 99.209 C 104.883 99.211,104.753 99.245,104.960 99.285 M97.208 100.282 C 97.369 100.323,97.631 100.323,97.792 100.282 C 97.952 100.240,97.821 100.205,97.500 100.205 C 97.179 100.205,97.048 100.240,97.208 100.282 M97.000 100.833 C 97.000 101.095,97.111 101.167,97.518 101.167 C 97.901 101.167,98.012 101.104,97.943 100.926 C 97.876 100.749,98.014 100.669,98.467 100.621 C 98.870 100.578,98.723 100.546,98.042 100.528 C 97.102 100.503,97.000 100.533,97.000 100.833 M275.793 101.181 C 273.546 101.710,272.917 102.859,272.917 106.428 C 272.917 110.321,274.514 112.274,277.273 111.757 C 279.651 111.311,280.542 110.172,280.639 107.458 L 280.704 105.667 278.602 105.667 L 276.500 105.667 276.500 106.667 L 276.500 107.667 277.500 107.667 C 278.584 107.667,278.636 107.726,278.329 108.609 C 278.004 109.541,276.634 109.970,275.895 109.371 C 274.947 108.604,274.776 104.532,275.654 103.654 C 276.503 102.805,277.777 103.050,278.265 104.156 L 278.564 104.833 279.606 104.833 C 280.836 104.833,280.848 104.819,280.539 103.767 C 279.962 101.799,277.910 100.681,275.793 101.181 M164.167 106.417 L 164.167 111.667 167.667 111.667 L 171.167 111.667 171.167 110.667 L 171.167 109.667 168.750 109.667 L 166.333 109.667 166.333 108.588 L 166.333 107.510 168.375 107.463 L 170.417 107.417 170.466 106.375 L 170.516 105.333 168.425 105.333 L 166.333 105.333 166.333 104.250 L 166.333 103.167 168.750 103.167 L 171.167 103.167 171.167 102.167 L 171.167 101.167 167.667 101.167 L 164.167 101.167 164.167 106.417 M172.500 106.417 L 172.500 111.667 173.579 111.667 L 174.659 111.667 174.704 108.708 L 174.750 105.750 175.625 107.065 C 176.106 107.788,176.500 108.399,176.500 108.423 C 176.500 108.447,176.975 109.168,177.556 110.025 L 178.612 111.583 179.639 111.633 L 180.667 111.683 180.667 106.425 L 180.667 101.167 179.500 101.167 L 178.333 101.167 178.333 104.107 L 178.333 107.048 176.393 104.107 L 174.452 101.167 173.476 101.167 L 172.500 101.167 172.500 106.417 M181.500 102.167 L 181.500 103.167 182.917 103.167 L 184.333 103.167 184.333 107.417 L 184.333 111.667 185.417 111.667 L 186.500 111.667 186.500 107.417 L 186.500 103.167 187.833 103.167 L 189.167 103.167 189.167 102.167 L 189.167 101.167 185.333 101.167 L 181.500 101.167 181.500 102.167 M190.167 106.417 L 190.167 111.667 191.250 111.667 L 192.333 111.667 192.333 109.583 L 192.333 107.500 192.960 107.500 L 193.586 107.500 194.599 109.542 L 195.612 111.583 196.889 111.632 C 197.592 111.659,198.167 111.643,198.167 111.596 C 198.167 111.479,197.602 110.269,197.500 110.167 C 197.454 110.121,197.089 109.458,196.689 108.693 L 195.961 107.303 196.568 106.803 C 197.941 105.671,198.065 103.193,196.806 102.069 C 195.940 101.297,195.347 101.167,192.683 101.167 L 190.167 101.167 190.167 106.417 M199.167 106.417 L 199.167 111.667 202.667 111.667 L 206.167 111.667 206.167 110.667 L 206.167 109.667 203.750 109.667 L 201.333 109.667 201.333 108.583 L 201.333 107.500 203.333 107.500 L 205.333 107.500 205.333 106.417 L 205.333 105.333 203.333 105.333 L 201.333 105.333 201.333 104.250 L 201.333 103.167 203.750 103.167 L 206.167 103.167 206.167 102.167 L 206.167 101.167 202.667 101.167 L 199.167 101.167 199.167 106.417 M207.500 106.417 L 207.500 111.667 208.583 111.667 L 209.667 111.667 209.667 109.750 L 209.667 107.833 210.896 107.833 C 213.502 107.833,215.000 106.626,215.000 104.527 C 215.000 102.000,213.713 101.167,209.813 101.167 L 207.500 101.167 207.500 106.417 M216.039 106.375 L 216.083 111.583 217.208 111.633 L 218.333 111.682 218.333 109.581 L 218.333 107.480 218.955 107.532 C 219.569 107.583,219.590 107.608,220.541 109.494 C 221.730 111.851,221.549 111.692,222.975 111.633 L 224.167 111.583 223.335 109.936 C 222.878 109.029,222.434 108.204,222.348 108.101 C 222.088 107.787,221.944 107.000,222.147 107.000 C 222.915 107.000,223.770 105.125,223.586 103.845 C 223.282 101.733,222.230 101.167,218.612 101.167 L 215.995 101.167 216.039 106.375 M225.167 106.417 L 225.167 111.667 228.583 111.667 L 232.000 111.667 232.000 110.667 L 232.000 109.667 229.667 109.667 L 227.333 109.667 227.333 108.583 L 227.333 107.500 229.153 107.500 C 231.508 107.500,231.429 107.542,231.360 106.332 L 231.304 105.333 229.319 105.333 L 227.333 105.333 227.333 104.250 L 227.333 103.167 229.667 103.167 L 232.000 103.167 232.000 102.167 L 232.000 101.167 228.583 101.167 L 225.167 101.167 225.167 106.417 M233.333 106.417 L 233.333 111.667 234.417 111.667 L 235.500 111.667 235.503 108.542 L 235.506 105.417 235.869 106.000 C 236.068 106.321,236.873 107.564,237.657 108.763 C 238.442 109.962,239.166 111.087,239.267 111.263 C 239.411 111.514,239.674 111.594,240.476 111.633 L 241.500 111.683 241.500 106.425 L 241.500 101.167 240.421 101.167 L 239.341 101.167 239.296 104.117 L 239.250 107.067 237.656 104.658 C 236.779 103.334,235.919 102.006,235.745 101.708 C 235.441 101.188,235.386 101.167,234.381 101.167 L 233.333 101.167 233.333 106.417 M243.333 106.417 L 243.333 111.667 246.833 111.667 L 250.333 111.667 250.333 110.667 L 250.333 109.667 247.917 109.667 L 245.500 109.667 245.500 108.583 L 245.500 107.500 247.320 107.500 C 249.700 107.500,249.667 107.517,249.667 106.316 L 249.667 105.333 247.583 105.333 L 245.500 105.333 245.500 104.250 L 245.500 103.167 247.917 103.167 L 250.333 103.167 250.333 102.167 L 250.333 101.167 246.833 101.167 L 243.333 101.167 243.333 106.417 M251.500 105.090 C 251.500 108.735,251.525 109.062,251.847 109.693 C 253.002 111.957,256.211 112.483,258.085 110.716 C 259.113 109.747,259.167 109.466,259.167 105.089 L 259.167 101.167 258.092 101.167 L 257.017 101.167 256.967 105.015 L 256.917 108.863 256.449 109.265 C 255.575 110.016,254.247 109.672,253.836 108.589 C 253.741 108.340,253.667 106.610,253.667 104.656 L 253.667 101.167 252.583 101.167 L 251.500 101.167 251.500 105.090 M261.000 106.410 L 261.000 111.683 262.042 111.633 L 263.083 111.583 263.130 109.542 L 263.177 107.500 263.797 107.505 L 264.417 107.510 265.417 109.587 L 266.417 111.663 267.709 111.665 L 269.001 111.667 268.789 111.208 C 268.417 110.405,267.320 108.269,266.993 107.711 C 266.679 107.176,266.679 107.172,267.036 106.981 C 268.596 106.146,268.985 103.332,267.702 102.172 C 266.737 101.300,266.544 101.253,263.708 101.194 L 261.000 101.138 261.000 106.410 M282.167 106.417 L 282.167 111.667 285.667 111.667 L 289.167 111.667 289.167 110.667 L 289.167 109.667 286.750 109.667 L 284.333 109.667 284.333 108.542 L 284.333 107.417 286.375 107.417 L 288.417 107.417 288.466 106.375 L 288.516 105.333 286.425 105.333 L 284.333 105.333 284.333 104.250 L 284.333 103.167 286.750 103.167 L 289.167 103.167 289.167 102.167 L 289.167 101.167 285.667 101.167 L 282.167 101.167 282.167 106.417 M290.500 106.417 L 290.500 111.667 291.579 111.667 L 292.659 111.667 292.704 108.720 L 292.750 105.773 293.832 107.428 C 294.427 108.338,294.959 109.121,295.015 109.167 C 295.071 109.212,295.147 109.327,295.183 109.422 C 295.220 109.517,295.550 110.061,295.917 110.632 L 296.583 111.670 297.583 111.627 L 298.583 111.583 298.627 106.375 L 298.671 101.167 297.502 101.167 L 296.333 101.167 296.333 104.125 L 296.332 107.083 294.377 104.125 L 292.423 101.167 291.461 101.167 L 290.500 101.167 290.500 106.417 M300.500 106.417 L 300.500 111.667 303.902 111.667 L 307.304 111.667 307.360 110.666 L 307.417 109.666 305.042 109.666 L 302.667 109.667 302.667 108.589 L 302.667 107.511 304.625 107.464 L 306.583 107.417 306.633 106.375 L 306.683 105.333 304.675 105.333 L 302.667 105.333 302.667 104.250 L 302.667 103.167 305.042 103.167 L 307.417 103.167 307.360 102.167 L 307.304 101.167 303.902 101.167 L 300.500 101.167 300.500 106.417 M308.667 106.417 L 308.667 111.667 309.833 111.667 L 311.000 111.667 311.000 109.583 L 311.000 107.500 311.567 107.500 C 312.127 107.500,312.149 107.528,313.173 109.583 L 314.212 111.667 316.503 111.667 L 318.794 111.667 319.105 110.708 L 319.417 109.750 321.097 109.703 L 322.776 109.656 322.966 110.286 C 323.070 110.633,323.200 111.085,323.255 111.292 C 323.347 111.635,323.454 111.667,324.511 111.667 C 325.936 111.667,325.932 111.926,324.570 108.228 C 323.967 106.590,323.287 104.725,323.058 104.083 C 322.829 103.442,322.541 102.654,322.418 102.333 C 322.295 102.013,322.152 101.615,322.099 101.450 C 322.020 101.200,321.850 101.158,321.072 101.200 L 320.140 101.250 319.815 102.167 C 319.346 103.490,319.074 104.246,318.524 105.750 C 318.256 106.483,317.718 107.965,317.328 109.042 C 316.938 110.119,316.574 110.997,316.518 110.993 C 316.462 110.990,315.994 110.145,315.478 109.117 L 314.540 107.247 315.252 106.627 C 316.656 105.406,316.639 103.257,315.214 102.003 C 314.330 101.225,314.039 101.167,311.063 101.167 L 308.667 101.167 308.667 106.417 M326.333 106.420 L 326.333 111.673 329.792 111.628 L 333.250 111.583 333.300 110.625 L 333.350 109.667 330.925 109.667 L 328.500 109.667 328.500 105.417 L 328.500 101.167 327.417 101.167 L 326.333 101.167 326.333 106.420 M97.208 101.448 C 97.369 101.490,97.631 101.490,97.792 101.448 C 97.952 101.406,97.821 101.372,97.500 101.372 C 97.179 101.372,97.048 101.406,97.208 101.448 M104.960 101.618 C 105.168 101.658,105.468 101.656,105.627 101.615 C 105.786 101.573,105.617 101.540,105.250 101.542 C 104.883 101.544,104.753 101.578,104.960 101.618 M97.000 101.917 C 97.000 102.097,97.184 102.167,97.657 102.167 C 98.400 102.167,98.688 101.922,98.123 101.771 C 97.463 101.594,97.000 101.654,97.000 101.917 M97.208 102.948 C 97.369 102.990,97.631 102.990,97.792 102.948 C 97.952 102.906,97.821 102.872,97.500 102.872 C 97.179 102.872,97.048 102.906,97.208 102.948 M104.960 103.118 C 105.168 103.158,105.468 103.156,105.627 103.115 C 105.786 103.073,105.617 103.040,105.250 103.042 C 104.883 103.044,104.753 103.078,104.960 103.118 M97.000 103.500 C 97.000 103.855,97.043 103.866,97.958 103.753 C 98.900 103.637,99.124 103.567,98.986 103.433 C 98.644 103.102,97.000 103.158,97.000 103.500 M195.175 103.671 C 195.985 104.724,195.421 105.395,193.660 105.475 L 192.333 105.535 192.333 104.333 L 192.333 103.130 193.596 103.194 C 194.703 103.250,194.897 103.308,195.175 103.671 M212.509 103.671 C 213.353 104.769,212.631 105.667,210.905 105.667 L 209.667 105.667 209.667 104.398 L 209.667 103.130 210.929 103.194 C 212.037 103.250,212.230 103.308,212.509 103.671 M221.105 103.534 C 222.026 104.455,221.163 105.500,219.482 105.500 L 218.333 105.500 218.333 104.311 L 218.333 103.123 219.595 103.204 C 220.399 103.255,220.946 103.375,221.105 103.534 M265.675 103.421 C 265.945 103.561,266.172 103.730,266.179 103.796 C 266.186 103.862,266.223 104.089,266.262 104.299 C 266.402 105.050,265.682 105.500,264.341 105.500 L 263.167 105.500 263.167 104.333 L 263.167 103.167 264.175 103.167 C 264.753 103.167,265.393 103.275,265.675 103.421 M313.277 103.344 C 314.868 103.948,314.069 105.500,312.167 105.500 L 311.000 105.500 311.000 104.333 L 311.000 103.167 311.906 103.167 C 312.404 103.167,313.021 103.246,313.277 103.344 M104.442 103.875 C 104.485 103.944,104.773 104.000,105.083 104.000 C 105.393 104.000,105.682 103.944,105.724 103.875 C 105.767 103.806,105.478 103.750,105.083 103.750 C 104.688 103.750,104.400 103.806,104.442 103.875 M97.208 104.115 C 97.369 104.157,97.631 104.157,97.792 104.115 C 97.952 104.073,97.821 104.039,97.500 104.039 C 97.179 104.039,97.048 104.073,97.208 104.115 M96.966 104.708 C 96.934 104.915,96.817 105.065,96.704 105.042 C 96.574 105.015,96.500 105.211,96.500 105.583 C 96.500 106.319,96.794 106.352,96.864 105.625 C 96.914 105.109,96.956 105.079,97.750 104.985 C 98.208 104.930,98.452 104.874,98.292 104.860 C 98.131 104.845,98.000 104.721,98.000 104.583 C 98.000 104.143,97.034 104.259,96.966 104.708 M60.042 105.583 C 60.044 105.950,60.078 106.080,60.118 105.873 C 60.158 105.666,60.156 105.366,60.115 105.206 C 60.073 105.047,60.040 105.217,60.042 105.583 M60.375 105.583 C 60.377 105.950,60.411 106.080,60.451 105.873 C 60.491 105.666,60.490 105.366,60.448 105.206 C 60.406 105.047,60.374 105.217,60.375 105.583 M60.833 105.621 C 60.833 106.284,61.097 106.218,61.198 105.530 C 61.244 105.216,61.194 105.056,61.050 105.056 C 60.915 105.056,60.833 105.268,60.833 105.621 M61.542 105.583 C 61.544 105.950,61.578 106.080,61.618 105.873 C 61.658 105.666,61.656 105.366,61.615 105.206 C 61.573 105.047,61.540 105.217,61.542 105.583 M61.833 105.583 C 61.833 106.043,61.894 106.141,62.167 106.121 C 62.422 106.102,62.500 105.976,62.500 105.583 C 62.500 105.190,62.422 105.065,62.167 105.046 C 61.894 105.025,61.833 105.123,61.833 105.583 M62.802 105.530 C 62.903 106.218,63.167 106.284,63.167 105.621 C 63.167 105.268,63.085 105.056,62.950 105.056 C 62.806 105.056,62.756 105.216,62.802 105.530 M63.500 105.583 C 63.500 105.941,63.580 106.111,63.750 106.111 C 63.920 106.111,64.000 105.941,64.000 105.583 C 64.000 105.225,63.920 105.056,63.750 105.056 C 63.580 105.056,63.500 105.225,63.500 105.583 M64.221 106.083 C 64.222 106.725,64.252 106.967,64.288 106.621 C 64.324 106.275,64.324 105.750,64.287 105.455 C 64.250 105.159,64.221 105.442,64.221 106.083 M64.500 105.583 C 64.500 106.043,64.561 106.141,64.833 106.121 C 65.089 106.102,65.167 105.976,65.167 105.583 C 65.167 105.190,65.089 105.065,64.833 105.046 C 64.561 105.025,64.500 105.123,64.500 105.583 M65.375 105.583 C 65.377 105.950,65.411 106.080,65.451 105.873 C 65.491 105.666,65.490 105.366,65.448 105.206 C 65.406 105.047,65.374 105.217,65.375 105.583 M66.375 105.110 C 66.083 105.228,66.114 105.944,66.417 106.060 C 66.609 106.134,66.667 106.023,66.667 105.578 C 66.667 105.260,66.648 105.006,66.625 105.013 C 66.602 105.020,66.490 105.064,66.375 105.110 M66.875 105.583 C 66.877 105.950,66.911 106.080,66.951 105.873 C 66.991 105.666,66.990 105.366,66.948 105.206 C 66.906 105.047,66.874 105.217,66.875 105.583 M67.189 106.125 C 67.206 107.002,67.234 107.121,67.319 106.667 C 67.380 106.339,67.516 106.102,67.630 106.125 C 67.941 106.189,67.884 105.222,67.570 105.101 C 67.425 105.046,67.275 105.000,67.236 105.000 C 67.198 105.000,67.177 105.506,67.189 106.125 M68.083 105.583 C 68.083 105.894,68.169 106.111,68.292 106.111 C 68.414 106.111,68.500 105.894,68.500 105.583 C 68.500 105.272,68.414 105.056,68.292 105.056 C 68.169 105.056,68.083 105.272,68.083 105.583 M68.689 105.911 C 68.702 106.372,68.745 106.576,68.786 106.362 C 68.834 106.111,68.943 106.006,69.097 106.065 C 69.271 106.132,69.333 106.014,69.333 105.614 C 69.333 105.183,69.265 105.071,69.000 105.071 C 68.708 105.071,68.669 105.175,68.689 105.911 M69.542 105.583 C 69.544 105.950,69.578 106.080,69.618 105.873 C 69.658 105.666,69.656 105.366,69.615 105.206 C 69.573 105.047,69.540 105.217,69.542 105.583 M69.961 106.027 C 70.032 107.629,70.297 107.663,70.371 106.080 C 70.407 105.312,70.361 105.084,70.166 105.043 C 69.961 105.001,69.924 105.178,69.961 106.027 M70.667 105.583 C 70.667 105.894,70.752 106.111,70.875 106.111 C 70.998 106.111,71.083 105.894,71.083 105.583 C 71.083 105.272,70.998 105.056,70.875 105.056 C 70.752 105.056,70.667 105.272,70.667 105.583 M71.500 105.833 C 71.500 106.695,71.719 106.949,71.895 106.292 C 72.081 105.598,72.014 105.000,71.750 105.000 C 71.561 105.000,71.500 105.204,71.500 105.833 M72.209 105.583 C 72.211 105.950,72.245 106.080,72.285 105.873 C 72.324 105.666,72.323 105.366,72.281 105.206 C 72.239 105.047,72.207 105.217,72.209 105.583 M72.500 105.612 C 72.500 106.058,72.559 106.180,72.740 106.110 C 72.917 106.042,72.998 106.181,73.046 106.634 C 73.086 107.014,73.121 106.833,73.139 106.160 C 73.164 105.180,73.133 105.068,72.833 105.046 C 72.558 105.025,72.500 105.123,72.500 105.612 M73.333 105.583 C 73.333 105.894,73.419 106.111,73.542 106.111 C 73.664 106.111,73.750 105.894,73.750 105.583 C 73.750 105.272,73.664 105.056,73.542 105.056 C 73.419 105.056,73.333 105.272,73.333 105.583 M74.375 105.110 C 74.140 105.205,74.086 106.000,74.314 106.000 C 74.396 106.000,74.495 105.775,74.536 105.500 C 74.576 105.225,74.603 105.006,74.596 105.013 C 74.589 105.020,74.490 105.064,74.375 105.110 M74.875 105.583 C 74.877 105.950,74.911 106.080,74.951 105.873 C 74.991 105.666,74.990 105.366,74.948 105.206 C 74.906 105.047,74.874 105.217,74.875 105.583 M75.250 105.579 C 75.250 106.035,75.318 106.167,75.552 106.167 C 75.793 106.167,75.844 106.056,75.802 105.626 C 75.727 104.845,75.250 104.805,75.250 105.579 M76.667 105.583 C 76.667 105.984,76.739 106.095,77.000 106.095 C 77.261 106.095,77.333 105.984,77.333 105.583 C 77.333 105.183,77.261 105.071,77.000 105.071 C 76.739 105.071,76.667 105.183,76.667 105.583 M77.550 105.833 C 77.550 106.337,77.581 106.544,77.619 106.292 C 77.658 106.040,77.658 105.627,77.619 105.375 C 77.581 105.123,77.550 105.329,77.550 105.833 M77.875 105.583 C 77.877 105.950,77.911 106.080,77.951 105.873 C 77.991 105.666,77.990 105.366,77.948 105.206 C 77.906 105.047,77.874 105.217,77.875 105.583 M78.667 105.621 C 78.667 106.284,78.930 106.218,79.031 105.530 C 79.077 105.216,79.027 105.056,78.884 105.056 C 78.748 105.056,78.667 105.268,78.667 105.621 M79.333 105.583 C 79.333 105.976,79.411 106.102,79.667 106.121 C 79.939 106.141,80.000 106.043,80.000 105.583 C 80.000 105.123,79.939 105.025,79.667 105.046 C 79.411 105.065,79.333 105.190,79.333 105.583 M80.209 105.583 C 80.211 105.950,80.245 106.080,80.285 105.873 C 80.324 105.666,80.323 105.366,80.281 105.206 C 80.239 105.047,80.207 105.217,80.209 105.583 M80.833 105.573 C 80.833 105.900,80.908 106.167,81.000 106.167 C 81.092 106.167,81.167 105.946,81.167 105.677 C 81.167 105.407,81.092 105.140,81.000 105.083 C 80.901 105.022,80.833 105.220,80.833 105.573 M81.375 105.583 C 81.377 105.950,81.411 106.080,81.451 105.873 C 81.491 105.666,81.490 105.366,81.448 105.206 C 81.406 105.047,81.374 105.217,81.375 105.583 M82.028 106.160 C 82.045 106.833,82.081 107.014,82.121 106.634 C 82.169 106.181,82.249 106.042,82.426 106.110 C 82.608 106.180,82.667 106.058,82.667 105.612 C 82.667 105.123,82.609 105.025,82.333 105.046 C 82.033 105.068,82.003 105.180,82.028 106.160 M82.875 105.583 C 82.877 105.950,82.911 106.080,82.951 105.873 C 82.991 105.666,82.990 105.366,82.948 105.206 C 82.906 105.047,82.874 105.217,82.875 105.583 M83.207 105.741 C 83.348 106.993,83.710 107.032,83.736 105.797 C 83.747 105.234,83.687 105.081,83.435 105.030 C 83.152 104.973,83.129 105.047,83.207 105.741 M84.042 105.583 C 84.044 105.950,84.078 106.080,84.118 105.873 C 84.158 105.666,84.156 105.366,84.115 105.206 C 84.073 105.047,84.040 105.217,84.042 105.583 M84.735 105.970 C 84.870 107.123,85.055 107.419,85.171 106.667 C 85.222 106.332,85.347 106.101,85.464 106.125 C 85.591 106.151,85.667 105.960,85.667 105.614 C 85.667 105.106,85.624 105.061,85.147 105.061 L 84.628 105.061 84.735 105.970 M85.875 105.583 C 85.877 105.950,85.911 106.080,85.951 105.873 C 85.991 105.666,85.990 105.366,85.948 105.206 C 85.906 105.047,85.874 105.217,85.875 105.583 M86.178 105.542 C 86.200 106.546,86.475 106.842,86.488 105.875 C 86.495 105.394,86.425 105.000,86.333 105.000 C 86.242 105.000,86.172 105.244,86.178 105.542 M86.709 105.583 C 86.711 105.950,86.745 106.080,86.785 105.873 C 86.824 105.666,86.823 105.366,86.781 105.206 C 86.739 105.047,86.707 105.217,86.709 105.583 M87.375 105.583 C 87.377 105.950,87.411 106.080,87.451 105.873 C 87.491 105.666,87.490 105.366,87.448 105.206 C 87.406 105.047,87.374 105.217,87.375 105.583 M87.676 105.469 C 87.694 106.292,87.958 107.366,87.981 106.708 C 87.991 106.410,88.075 106.167,88.167 106.167 C 88.517 106.167,88.354 105.072,88.000 105.046 C 87.741 105.026,87.669 105.121,87.676 105.469 M88.542 105.583 C 88.544 105.950,88.578 106.080,88.618 105.873 C 88.658 105.666,88.656 105.366,88.615 105.206 C 88.573 105.047,88.540 105.217,88.542 105.583 M88.833 105.573 C 88.833 105.900,88.908 106.167,89.000 106.167 C 89.092 106.167,89.167 105.946,89.167 105.677 C 89.167 105.407,89.092 105.140,89.000 105.083 C 88.901 105.022,88.833 105.220,88.833 105.573 M89.383 105.833 C 89.383 106.337,89.415 106.544,89.453 106.292 C 89.491 106.040,89.491 105.627,89.453 105.375 C 89.415 105.123,89.383 105.329,89.383 105.833 M90.042 105.583 C 90.044 105.950,90.078 106.080,90.118 105.873 C 90.158 105.666,90.156 105.366,90.115 105.206 C 90.073 105.047,90.040 105.217,90.042 105.583 M90.333 105.612 C 90.333 106.058,90.392 106.180,90.574 106.110 C 90.751 106.042,90.831 106.181,90.879 106.634 C 90.919 107.014,90.955 106.833,90.972 106.160 C 90.997 105.180,90.967 105.068,90.667 105.046 C 90.391 105.025,90.333 105.123,90.333 105.612 M91.209 105.583 C 91.211 105.950,91.245 106.080,91.285 105.873 C 91.324 105.666,91.323 105.366,91.281 105.206 C 91.239 105.047,91.207 105.217,91.209 105.583 M91.500 105.573 C 91.500 105.900,91.575 106.167,91.667 106.167 C 91.758 106.167,91.833 105.946,91.833 105.677 C 91.833 105.407,91.758 105.140,91.667 105.083 C 91.567 105.022,91.500 105.220,91.500 105.573 M92.709 105.583 C 92.711 105.950,92.745 106.080,92.785 105.873 C 92.824 105.666,92.823 105.366,92.781 105.206 C 92.739 105.047,92.707 105.217,92.709 105.583 M93.000 105.583 C 93.000 105.904,93.075 106.167,93.167 106.167 C 93.258 106.167,93.333 105.904,93.333 105.583 C 93.333 105.263,93.258 105.000,93.167 105.000 C 93.075 105.000,93.000 105.263,93.000 105.583 M93.542 105.583 C 93.544 105.950,93.578 106.080,93.618 105.873 C 93.658 105.666,93.656 105.366,93.615 105.206 C 93.573 105.047,93.540 105.217,93.542 105.583 M93.861 106.140 C 93.878 106.809,93.915 107.005,93.954 106.634 C 94.003 106.166,94.080 106.041,94.272 106.115 C 94.472 106.192,94.513 106.097,94.471 105.662 C 94.355 104.484,93.830 104.895,93.861 106.140 M95.383 105.833 C 95.383 106.337,95.415 106.544,95.453 106.292 C 95.491 106.040,95.491 105.627,95.453 105.375 C 95.415 105.123,95.383 105.329,95.383 105.833 M95.667 105.583 C 95.667 105.904,95.742 106.167,95.833 106.167 C 95.925 106.167,96.000 105.904,96.000 105.583 C 96.000 105.263,95.925 105.000,95.833 105.000 C 95.742 105.000,95.667 105.263,95.667 105.583 M96.209 105.583 C 96.211 105.950,96.245 106.080,96.285 105.873 C 96.324 105.666,96.323 105.366,96.281 105.206 C 96.239 105.047,96.207 105.217,96.209 105.583 M321.499 105.958 C 321.652 106.394,321.829 106.956,321.892 107.208 L 322.006 107.667 321.073 107.667 C 320.390 107.667,320.162 107.611,320.226 107.458 C 320.274 107.344,320.477 106.740,320.676 106.116 C 321.080 104.849,321.108 104.844,321.499 105.958 M78.167 105.573 C 78.167 105.797,78.242 106.027,78.333 106.083 C 78.431 106.143,78.500 105.974,78.500 105.677 C 78.500 105.396,78.425 105.167,78.333 105.167 C 78.242 105.167,78.167 105.350,78.167 105.573 M59.333 112.250 C 59.333 112.662,59.390 113.000,59.458 113.000 C 59.527 113.000,59.583 112.662,59.583 112.250 C 59.583 111.837,59.527 111.500,59.458 111.500 C 59.390 111.500,59.333 111.837,59.333 112.250 M66.917 112.250 C 66.917 112.645,66.973 112.933,67.042 112.891 C 67.110 112.848,67.167 112.560,67.167 112.250 C 67.167 111.940,67.110 111.652,67.042 111.609 C 66.973 111.567,66.917 111.855,66.917 112.250 M89.278 111.611 C 89.125 111.764,89.137 113.000,89.292 113.000 C 89.360 113.000,89.417 112.662,89.417 112.250 C 89.417 111.837,89.410 111.500,89.403 111.500 C 89.395 111.500,89.339 111.550,89.278 111.611 M96.750 112.266 C 96.750 112.670,96.806 113.000,96.875 113.000 C 96.944 113.000,97.000 112.704,97.000 112.343 C 97.000 111.982,96.944 111.652,96.875 111.609 C 96.806 111.567,96.750 111.862,96.750 112.266 M54.167 112.417 C 54.167 112.646,54.242 112.833,54.333 112.833 C 54.425 112.833,54.500 112.646,54.500 112.417 C 54.500 112.188,54.425 112.000,54.333 112.000 C 54.242 112.000,54.167 112.188,54.167 112.417 M57.205 112.500 C 57.205 112.821,57.240 112.952,57.282 112.792 C 57.323 112.631,57.323 112.369,57.282 112.208 C 57.240 112.048,57.205 112.179,57.205 112.500 M58.705 112.500 C 58.705 112.821,58.740 112.952,58.782 112.792 C 58.823 112.631,58.823 112.369,58.782 112.208 C 58.740 112.048,58.705 112.179,58.705 112.500 M60.205 112.500 C 60.205 112.821,60.240 112.952,60.282 112.792 C 60.323 112.631,60.323 112.369,60.282 112.208 C 60.240 112.048,60.205 112.179,60.205 112.500 M61.039 112.500 C 61.039 112.821,61.073 112.952,61.115 112.792 C 61.157 112.631,61.157 112.369,61.115 112.208 C 61.073 112.048,61.039 112.179,61.039 112.500 M62.333 112.417 C 62.333 112.646,62.408 112.833,62.500 112.833 C 62.592 112.833,62.667 112.646,62.667 112.417 C 62.667 112.188,62.592 112.000,62.500 112.000 C 62.408 112.000,62.333 112.188,62.333 112.417 M63.205 112.500 C 63.205 112.821,63.240 112.952,63.282 112.792 C 63.323 112.631,63.323 112.369,63.282 112.208 C 63.240 112.048,63.205 112.179,63.205 112.500 M63.833 112.500 C 63.833 112.775,63.908 113.000,64.000 113.000 C 64.092 113.000,64.167 112.775,64.167 112.500 C 64.167 112.225,64.092 112.000,64.000 112.000 C 63.908 112.000,63.833 112.225,63.833 112.500 M64.705 112.500 C 64.705 112.821,64.740 112.952,64.782 112.792 C 64.823 112.631,64.823 112.369,64.782 112.208 C 64.740 112.048,64.705 112.179,64.705 112.500 M67.705 112.500 C 67.705 112.821,67.740 112.952,67.782 112.792 C 67.823 112.631,67.823 112.369,67.782 112.208 C 67.740 112.048,67.705 112.179,67.705 112.500 M68.333 112.510 C 68.333 112.807,68.403 112.977,68.500 112.917 C 68.592 112.860,68.667 112.631,68.667 112.407 C 68.667 112.183,68.592 112.000,68.500 112.000 C 68.408 112.000,68.333 112.229,68.333 112.510 M69.205 112.500 C 69.205 112.821,69.240 112.952,69.282 112.792 C 69.323 112.631,69.323 112.369,69.282 112.208 C 69.240 112.048,69.205 112.179,69.205 112.500 M69.872 112.500 C 69.872 112.821,69.906 112.952,69.948 112.792 C 69.990 112.631,69.990 112.369,69.948 112.208 C 69.906 112.048,69.872 112.179,69.872 112.500 M72.205 112.500 C 72.205 112.821,72.240 112.952,72.282 112.792 C 72.323 112.631,72.323 112.369,72.282 112.208 C 72.240 112.048,72.205 112.179,72.205 112.500 M72.872 112.500 C 72.872 112.821,72.906 112.952,72.948 112.792 C 72.990 112.631,72.990 112.369,72.948 112.208 C 72.906 112.048,72.872 112.179,72.872 112.500 M73.500 112.407 C 73.500 112.631,73.575 112.860,73.667 112.917 C 73.764 112.977,73.833 112.807,73.833 112.510 C 73.833 112.229,73.758 112.000,73.667 112.000 C 73.575 112.000,73.500 112.183,73.500 112.407 M75.000 112.407 C 75.000 112.631,75.075 112.860,75.167 112.917 C 75.264 112.977,75.333 112.807,75.333 112.510 C 75.333 112.229,75.258 112.000,75.167 112.000 C 75.075 112.000,75.000 112.183,75.000 112.407 M78.000 112.407 C 78.000 112.631,78.075 112.860,78.167 112.917 C 78.264 112.977,78.333 112.807,78.333 112.510 C 78.333 112.229,78.258 112.000,78.167 112.000 C 78.075 112.000,78.000 112.183,78.000 112.407 M78.872 112.500 C 78.872 112.821,78.906 112.952,78.948 112.792 C 78.990 112.631,78.990 112.369,78.948 112.208 C 78.906 112.048,78.872 112.179,78.872 112.500 M79.500 112.407 C 79.500 112.631,79.575 112.860,79.667 112.917 C 79.764 112.977,79.833 112.807,79.833 112.510 C 79.833 112.229,79.758 112.000,79.667 112.000 C 79.575 112.000,79.500 112.183,79.500 112.407 M82.539 112.500 C 82.539 112.821,82.573 112.952,82.615 112.792 C 82.657 112.631,82.657 112.369,82.615 112.208 C 82.573 112.048,82.539 112.179,82.539 112.500 M83.372 112.500 C 83.372 112.821,83.406 112.952,83.448 112.792 C 83.490 112.631,83.490 112.369,83.448 112.208 C 83.406 112.048,83.372 112.179,83.372 112.500 M84.039 112.500 C 84.039 112.821,84.073 112.952,84.115 112.792 C 84.157 112.631,84.157 112.369,84.115 112.208 C 84.073 112.048,84.039 112.179,84.039 112.500 M85.539 112.500 C 85.539 112.821,85.573 112.952,85.615 112.792 C 85.657 112.631,85.657 112.369,85.615 112.208 C 85.573 112.048,85.539 112.179,85.539 112.500 M86.372 112.500 C 86.372 112.821,86.406 112.952,86.448 112.792 C 86.490 112.631,86.490 112.369,86.448 112.208 C 86.406 112.048,86.372 112.179,86.372 112.500 M88.539 112.500 C 88.539 112.821,88.573 112.952,88.615 112.792 C 88.657 112.631,88.657 112.369,88.615 112.208 C 88.573 112.048,88.539 112.179,88.539 112.500 M90.039 112.500 C 90.039 112.821,90.073 112.952,90.115 112.792 C 90.157 112.631,90.157 112.369,90.115 112.208 C 90.073 112.048,90.039 112.179,90.039 112.500 M92.167 112.510 C 92.167 112.807,92.236 112.977,92.333 112.917 C 92.425 112.860,92.500 112.631,92.500 112.407 C 92.500 112.183,92.425 112.000,92.333 112.000 C 92.242 112.000,92.167 112.229,92.167 112.510 M93.039 112.500 C 93.039 112.821,93.073 112.952,93.115 112.792 C 93.157 112.631,93.157 112.369,93.115 112.208 C 93.073 112.048,93.039 112.179,93.039 112.500 M93.667 112.417 C 93.667 112.646,93.742 112.833,93.833 112.833 C 93.925 112.833,94.000 112.646,94.000 112.417 C 94.000 112.188,93.925 112.000,93.833 112.000 C 93.742 112.000,93.667 112.188,93.667 112.417 " stroke="none" fill="#a4acac" fill-rule="evenodd"></path><path id="path1" d="M48.033 54.700 C 47.880 54.853,47.833 59.529,47.833 74.731 L 47.833 94.562 47.458 94.989 L 47.083 95.417 47.542 95.013 L 48.000 94.609 48.000 74.754 C 48.000 59.534,48.047 54.853,48.200 54.700 C 48.310 54.590,48.362 54.500,48.317 54.500 C 48.271 54.500,48.143 54.590,48.033 54.700 M73.960 54.951 C 74.168 54.991,74.468 54.990,74.627 54.948 C 74.786 54.906,74.617 54.874,74.250 54.875 C 73.883 54.877,73.753 54.911,73.960 54.951 M79.542 54.948 C 79.702 54.990,79.965 54.990,80.125 54.948 C 80.285 54.906,80.154 54.872,79.833 54.872 C 79.512 54.872,79.381 54.906,79.542 54.948 M27.742 55.710 C 27.698 55.825,27.682 58.431,27.706 61.501 L 27.750 67.083 27.833 61.292 C 27.879 58.106,27.896 55.500,27.870 55.500 C 27.844 55.500,27.787 55.594,27.742 55.710 M62.057 58.583 C 62.058 59.317,62.087 59.596,62.122 59.204 C 62.157 58.812,62.157 58.212,62.121 57.871 C 62.085 57.529,62.057 57.850,62.057 58.583 M68.458 58.784 C 68.665 58.824,69.002 58.824,69.208 58.784 C 69.415 58.745,69.246 58.712,68.833 58.712 C 68.421 58.712,68.252 58.745,68.458 58.784 M72.625 58.784 C 72.831 58.824,73.169 58.824,73.375 58.784 C 73.581 58.745,73.412 58.712,73.000 58.712 C 72.587 58.712,72.419 58.745,72.625 58.784 M80.542 62.250 C 80.544 62.617,80.578 62.747,80.618 62.540 C 80.658 62.332,80.656 62.032,80.615 61.873 C 80.573 61.714,80.540 61.883,80.542 62.250 M95.083 63.167 C 95.535 63.625,95.942 64.000,95.987 64.000 C 96.033 64.000,95.701 63.625,95.250 63.167 C 94.799 62.708,94.392 62.333,94.346 62.333 C 94.300 62.333,94.632 62.708,95.083 63.167 M98.333 70.417 C 98.644 70.737,98.936 71.000,98.982 71.000 C 99.028 71.000,98.811 70.737,98.500 70.417 C 98.189 70.096,97.897 69.833,97.851 69.833 C 97.805 69.833,98.022 70.096,98.333 70.417 M77.910 70.804 C 77.985 70.937,77.881 71.202,77.647 71.471 L 77.259 71.917 77.749 71.461 C 78.156 71.081,78.200 70.969,78.011 70.794 C 77.828 70.623,77.808 70.625,77.910 70.804 M101.708 72.119 C 101.960 72.158,102.373 72.158,102.625 72.119 C 102.877 72.081,102.671 72.050,102.167 72.050 C 101.662 72.050,101.456 72.081,101.708 72.119 M103.993 73.042 C 104.402 73.477,104.758 73.833,104.785 73.833 C 104.910 73.833,104.778 73.684,104.042 72.993 L 103.250 72.250 103.993 73.042 M81.491 76.292 L 80.917 76.917 81.542 76.342 C 81.885 76.026,82.167 75.745,82.167 75.717 C 82.167 75.590,82.026 75.710,81.491 76.292 M104.742 76.542 L 104.083 77.250 104.792 76.591 C 105.450 75.978,105.577 75.833,105.450 75.833 C 105.423 75.833,105.105 76.152,104.742 76.542 M79.991 77.958 L 79.417 78.583 80.042 78.009 C 80.385 77.693,80.667 77.412,80.667 77.384 C 80.667 77.257,80.526 77.377,79.991 77.958 M95.883 78.167 C 95.883 78.671,95.915 78.877,95.953 78.625 C 95.991 78.373,95.991 77.960,95.953 77.708 C 95.915 77.456,95.883 77.662,95.883 78.167 M71.240 78.708 L 70.750 79.250 71.292 78.760 C 71.590 78.491,71.833 78.248,71.833 78.219 C 71.833 78.090,71.696 78.203,71.240 78.708 M102.245 79.208 L 101.250 80.250 102.292 79.255 C 102.865 78.708,103.333 78.239,103.333 78.214 C 103.333 78.090,103.169 78.241,102.245 79.208 M78.324 79.792 L 77.750 80.417 78.375 79.842 C 78.719 79.526,79.000 79.245,79.000 79.217 C 79.000 79.090,78.859 79.210,78.324 79.792 M96.660 79.875 C 97.068 80.310,97.425 80.667,97.451 80.667 C 97.577 80.667,97.444 80.517,96.708 79.826 L 95.917 79.083 96.660 79.875 M61.582 86.042 L 56.083 91.583 61.625 86.084 C 66.775 80.974,67.242 80.500,67.124 80.500 C 67.101 80.500,64.607 82.994,61.582 86.042 M68.838 81.412 C 68.626 81.638,68.376 81.776,68.283 81.719 C 68.184 81.658,68.167 81.699,68.243 81.821 C 68.349 81.994,69.333 81.300,69.333 81.052 C 69.333 80.929,69.201 81.025,68.838 81.412 M76.658 81.625 L 76.083 82.250 76.708 81.676 C 77.290 81.141,77.410 81.000,77.283 81.000 C 77.255 81.000,76.974 81.281,76.658 81.625 M96.833 84.740 L 96.833 86.480 97.458 86.545 L 98.083 86.611 97.458 86.639 L 96.833 86.667 96.833 90.576 L 96.833 94.485 97.958 94.543 L 99.083 94.601 97.963 94.634 L 96.843 94.667 96.796 99.901 C 96.771 102.780,96.806 105.100,96.875 105.058 C 96.944 105.015,96.988 105.491,96.973 106.115 C 96.959 106.739,96.916 107.006,96.879 106.708 C 96.842 106.410,96.746 106.167,96.666 106.167 C 96.586 106.167,96.491 105.885,96.455 105.542 L 96.389 104.917 96.338 105.583 L 96.286 106.250 96.167 105.583 L 96.047 104.917 96.024 105.542 C 96.011 105.885,95.925 106.167,95.833 106.167 C 95.742 106.167,95.654 105.885,95.640 105.542 C 95.617 105.023,95.593 105.073,95.500 105.833 L 95.388 106.750 95.337 105.833 L 95.286 104.917 95.167 105.583 L 95.047 106.250 95.024 105.625 C 95.005 105.143,94.931 105.000,94.700 105.000 C 94.453 105.000,94.413 105.107,94.471 105.609 C 94.531 106.119,94.498 106.202,94.271 106.115 C 94.053 106.031,93.994 106.132,93.971 106.630 C 93.953 106.991,93.896 106.762,93.833 106.083 C 93.749 105.168,93.714 105.060,93.672 105.583 L 93.619 106.250 93.500 105.583 L 93.381 104.917 93.357 105.542 C 93.344 105.885,93.258 106.167,93.167 106.167 C 93.075 106.167,92.989 105.885,92.976 105.542 L 92.953 104.917 92.833 105.583 L 92.714 106.250 92.663 105.583 C 92.615 104.946,92.607 104.958,92.500 105.833 L 92.388 106.750 92.360 105.875 C 92.338 105.154,92.281 105.000,92.033 105.000 C 91.789 105.000,91.746 105.108,91.802 105.583 C 91.843 105.940,91.798 106.167,91.685 106.167 C 91.583 106.167,91.489 105.885,91.476 105.542 L 91.453 104.917 91.333 105.583 L 91.214 106.250 91.161 105.583 C 91.119 105.060,91.085 105.168,91.000 106.083 C 90.937 106.762,90.880 106.991,90.863 106.630 C 90.840 106.154,90.775 106.033,90.583 106.106 C 90.390 106.181,90.328 106.057,90.310 105.559 L 90.286 104.917 90.167 105.583 L 90.047 106.250 90.000 105.583 L 89.953 104.917 89.833 105.583 L 89.714 106.250 89.663 105.583 C 89.615 104.946,89.607 104.958,89.500 105.833 L 89.388 106.750 89.360 105.875 C 89.346 105.394,89.273 105.000,89.200 105.000 C 89.127 105.000,89.098 105.263,89.135 105.583 C 89.177 105.940,89.131 106.167,89.018 106.167 C 88.917 106.167,88.823 105.885,88.810 105.542 L 88.786 104.917 88.673 105.583 L 88.560 106.250 88.475 105.583 L 88.389 104.917 88.361 105.542 C 88.346 105.885,88.258 106.167,88.167 106.167 C 88.075 106.167,87.990 106.410,87.977 106.708 C 87.963 107.060,87.882 106.840,87.747 106.083 C 87.562 105.043,87.535 104.989,87.496 105.583 L 87.453 106.250 87.333 105.583 L 87.214 104.917 87.167 105.583 L 87.119 106.250 87.000 105.583 L 86.881 104.917 86.833 105.583 L 86.786 106.250 86.667 105.583 C 86.548 104.922,86.547 104.924,86.524 105.819 C 86.496 106.885,86.363 106.849,86.175 105.725 L 86.039 104.917 85.996 105.583 L 85.953 106.250 85.833 105.583 L 85.714 104.917 85.690 105.542 C 85.675 105.943,85.592 106.152,85.458 106.125 C 85.333 106.100,85.229 106.301,85.198 106.628 C 85.117 107.466,84.863 107.107,84.721 105.953 C 84.594 104.927,84.592 104.924,84.487 105.583 L 84.381 106.250 84.333 105.583 L 84.286 104.917 84.167 105.583 L 84.047 106.250 84.024 105.625 C 83.990 104.745,83.751 104.844,83.746 105.741 C 83.739 107.025,83.391 107.015,83.175 105.725 L 83.039 104.917 82.996 105.583 L 82.953 106.250 82.833 105.583 L 82.714 104.917 82.690 105.559 C 82.672 106.045,82.608 106.180,82.426 106.110 C 82.249 106.042,82.169 106.181,82.121 106.634 C 82.079 107.031,82.038 106.834,82.004 106.083 C 81.958 105.029,81.941 104.981,81.833 105.583 L 81.714 106.250 81.667 105.583 L 81.619 104.917 81.500 105.583 L 81.381 106.250 81.357 105.625 C 81.344 105.281,81.273 105.000,81.200 105.000 C 81.127 105.000,81.098 105.263,81.135 105.583 C 81.177 105.940,81.131 106.167,81.018 106.167 C 80.917 106.167,80.821 105.885,80.806 105.542 C 80.784 105.023,80.760 105.073,80.667 105.833 L 80.554 106.750 80.504 105.833 C 80.453 104.918,80.453 104.917,80.340 105.583 L 80.227 106.250 80.141 105.583 L 80.056 104.917 80.028 105.531 C 79.988 106.412,79.348 106.390,79.304 105.506 C 79.288 105.182,79.226 105.442,79.167 106.083 C 79.101 106.795,79.047 107.002,79.029 106.615 C 79.012 106.240,78.932 106.023,78.833 106.083 C 78.734 106.145,78.667 105.946,78.667 105.593 C 78.667 104.695,78.010 104.725,77.976 105.625 L 77.953 106.250 77.833 105.583 L 77.714 104.917 77.663 105.833 L 77.612 106.750 77.500 105.833 C 77.414 105.133,77.381 105.056,77.360 105.506 C 77.339 105.975,77.265 106.095,77.000 106.095 C 76.734 106.095,76.662 105.976,76.643 105.506 L 76.619 104.917 76.500 105.583 L 76.381 106.250 76.328 105.583 C 76.286 105.060,76.251 105.168,76.167 106.083 L 76.059 107.250 76.029 106.125 C 76.013 105.506,75.940 105.000,75.867 105.000 C 75.794 105.000,75.764 105.263,75.802 105.583 C 75.861 106.087,75.822 106.167,75.518 106.167 C 75.227 106.167,75.163 106.059,75.143 105.542 L 75.119 104.917 75.000 105.583 L 74.881 106.250 74.830 105.583 C 74.781 104.946,74.774 104.958,74.667 105.833 C 74.605 106.337,74.542 106.581,74.527 106.375 C 74.512 106.169,74.425 106.000,74.333 106.000 C 74.091 106.000,74.128 105.210,74.375 105.110 C 74.490 105.064,74.415 105.020,74.208 105.013 C 73.892 105.002,73.833 105.087,73.833 105.556 C 73.833 106.359,73.344 106.320,73.304 105.514 C 73.288 105.185,73.226 105.442,73.167 106.083 C 73.104 106.762,73.047 106.991,73.029 106.630 C 73.007 106.154,72.942 106.033,72.750 106.106 C 72.557 106.181,72.495 106.057,72.476 105.559 L 72.453 104.917 72.333 105.583 L 72.214 106.250 72.171 105.583 C 72.127 104.901,72.098 104.954,71.920 106.042 C 71.773 106.945,71.500 106.810,71.500 105.833 C 71.500 105.375,71.425 105.000,71.333 105.000 C 71.242 105.000,71.167 105.250,71.167 105.556 C 71.167 105.938,71.089 106.111,70.917 106.111 C 70.744 106.111,70.667 105.938,70.667 105.556 C 70.667 105.250,70.587 105.000,70.490 105.000 C 70.393 105.000,70.361 105.076,70.418 105.170 C 70.556 105.392,70.333 107.167,70.167 107.167 C 70.097 107.167,69.965 106.660,69.875 106.042 C 69.733 105.060,69.706 105.002,69.666 105.583 L 69.619 106.250 69.500 105.583 L 69.381 104.917 69.357 105.536 C 69.339 106.013,69.276 106.134,69.083 106.060 C 68.908 105.993,68.825 106.082,68.806 106.357 C 68.791 106.573,68.728 106.337,68.667 105.833 C 68.579 105.119,68.548 105.049,68.527 105.514 C 68.490 106.321,68.000 106.360,68.000 105.556 C 68.000 105.133,67.930 105.003,67.708 105.013 C 67.534 105.021,67.501 105.060,67.625 105.110 C 67.898 105.220,67.903 106.181,67.630 106.125 C 67.516 106.102,67.380 106.339,67.319 106.667 C 67.232 107.132,67.201 107.014,67.165 106.083 C 67.125 105.054,67.106 104.995,67.006 105.583 L 66.893 106.250 66.808 105.583 L 66.723 104.917 66.695 105.536 C 66.673 106.012,66.609 106.134,66.417 106.060 C 66.114 105.944,66.083 105.228,66.375 105.110 C 66.490 105.064,66.415 105.020,66.208 105.013 C 65.869 105.001,65.831 105.082,65.806 105.875 L 65.779 106.750 65.667 105.833 C 65.559 104.958,65.552 104.946,65.504 105.583 L 65.453 106.250 65.333 105.583 L 65.214 104.917 65.190 105.506 C 65.155 106.390,64.513 106.413,64.471 105.531 C 64.454 105.180,64.395 105.416,64.333 106.083 L 64.226 107.250 64.172 106.083 C 64.131 105.169,64.097 105.043,64.018 105.500 C 63.881 106.286,63.500 106.348,63.500 105.583 C 63.500 105.263,63.425 105.000,63.333 105.000 C 63.242 105.000,63.167 105.267,63.167 105.593 C 63.167 105.946,63.099 106.145,63.000 106.083 C 62.908 106.027,62.821 106.154,62.806 106.365 C 62.791 106.577,62.728 106.337,62.667 105.833 C 62.581 105.133,62.548 105.056,62.527 105.506 C 62.486 106.391,61.844 106.413,61.810 105.531 L 61.786 104.917 61.667 105.583 L 61.547 106.250 61.494 105.583 C 61.453 105.060,61.418 105.168,61.333 106.083 C 61.268 106.795,61.214 107.002,61.196 106.615 C 61.179 106.240,61.098 106.023,61.000 106.083 C 60.901 106.145,60.833 105.946,60.833 105.593 C 60.833 104.800,60.506 104.829,60.476 105.625 L 60.453 106.250 60.333 105.583 L 60.214 104.917 60.167 105.583 L 60.119 106.250 60.011 105.583 C 59.952 105.217,59.978 104.804,60.069 104.667 C 60.204 104.462,60.192 104.454,60.003 104.622 C 59.853 104.756,59.778 105.164,59.787 105.789 C 59.795 106.317,59.767 106.585,59.724 106.384 C 59.674 106.150,59.560 106.052,59.406 106.110 C 59.253 106.169,59.162 106.091,59.154 105.893 C 59.143 105.655,59.118 105.641,59.043 105.833 C 58.990 105.971,58.852 106.158,58.737 106.250 C 58.622 106.342,58.499 106.567,58.462 106.750 C 58.426 106.933,58.314 107.067,58.214 107.047 C 57.975 106.999,53.767 112.095,53.696 112.516 C 53.667 112.693,53.578 112.798,53.500 112.750 C 53.421 112.701,53.309 112.737,53.252 112.831 C 53.186 112.938,53.485 113.000,54.063 113.000 C 54.971 113.000,54.979 112.996,55.046 112.458 L 55.113 111.917 55.140 112.458 C 55.165 112.973,55.199 113.000,55.823 113.000 C 56.438 113.000,56.483 112.966,56.546 112.458 L 56.613 111.917 56.640 112.458 C 56.657 112.806,56.753 113.000,56.906 113.000 C 57.051 113.000,57.172 112.787,57.213 112.458 L 57.280 111.917 57.307 112.458 C 57.332 112.973,57.366 113.000,57.989 113.000 C 58.605 113.000,58.650 112.966,58.713 112.458 L 58.780 111.917 58.807 112.458 C 58.851 113.360,59.333 113.169,59.333 112.250 C 59.333 111.837,59.408 111.500,59.500 111.500 C 59.592 111.500,59.667 111.837,59.667 112.250 C 59.667 113.160,60.105 113.328,60.213 112.458 L 60.280 111.917 60.307 112.458 C 60.327 112.874,60.409 113.000,60.656 113.000 C 60.895 113.000,60.996 112.860,61.046 112.458 L 61.113 111.917 61.140 112.458 C 61.157 112.806,61.253 113.000,61.406 113.000 C 61.551 113.000,61.672 112.787,61.713 112.458 L 61.780 111.917 61.807 112.458 C 61.832 112.973,61.866 113.000,62.489 113.000 C 63.105 113.000,63.150 112.966,63.213 112.458 L 63.280 111.917 63.307 112.458 C 63.342 113.180,63.833 113.219,63.833 112.500 C 63.833 112.225,63.908 112.000,64.000 112.000 C 64.092 112.000,64.167 112.225,64.167 112.500 C 64.167 113.201,64.625 113.166,64.713 112.458 L 64.780 111.917 64.807 112.458 C 64.832 112.973,64.866 113.000,65.489 113.000 C 66.105 113.000,66.150 112.966,66.213 112.458 L 66.280 111.917 66.307 112.458 C 66.351 113.367,66.833 113.167,66.833 112.240 C 66.833 111.733,66.894 111.518,67.016 111.593 C 67.116 111.655,67.170 111.997,67.136 112.353 C 67.054 113.212,67.607 113.313,67.713 112.458 L 67.780 111.917 67.807 112.458 C 67.842 113.180,68.333 113.219,68.333 112.500 C 68.333 112.225,68.417 112.000,68.519 112.000 C 68.630 112.000,68.675 112.200,68.631 112.500 C 68.573 112.894,68.620 113.000,68.852 113.000 C 69.058 113.000,69.165 112.839,69.213 112.458 L 69.280 111.917 69.307 112.458 C 69.324 112.806,69.419 113.000,69.573 113.000 C 69.718 113.000,69.839 112.787,69.879 112.458 L 69.947 111.917 69.973 112.458 C 69.994 112.874,70.075 113.000,70.323 113.000 C 70.562 113.000,70.663 112.860,70.713 112.458 L 70.780 111.917 70.807 112.458 C 70.824 112.806,70.919 113.000,71.073 113.000 C 71.218 113.000,71.339 112.787,71.379 112.458 L 71.447 111.917 71.473 112.458 C 71.494 112.874,71.575 113.000,71.823 113.000 C 72.062 113.000,72.163 112.860,72.213 112.458 L 72.280 111.917 72.307 112.458 C 72.324 112.806,72.419 113.000,72.573 113.000 C 72.718 113.000,72.839 112.787,72.879 112.458 L 72.947 111.917 72.973 112.458 C 72.993 112.862,73.078 113.000,73.304 113.000 C 73.548 113.000,73.594 112.900,73.536 112.500 C 73.492 112.200,73.536 112.000,73.648 112.000 C 73.750 112.000,73.833 112.225,73.833 112.500 C 73.833 113.375,74.305 113.122,74.377 112.208 L 74.440 111.417 74.470 112.208 C 74.494 112.853,74.557 113.000,74.804 113.000 C 75.048 113.000,75.094 112.900,75.036 112.500 C 74.992 112.200,75.036 112.000,75.148 112.000 C 75.250 112.000,75.333 112.225,75.333 112.500 C 75.333 113.201,75.792 113.166,75.879 112.458 L 75.947 111.917 75.973 112.458 C 75.999 112.973,76.032 113.000,76.656 113.000 C 77.271 113.000,77.316 112.966,77.379 112.458 L 77.447 111.917 77.473 112.458 C 77.493 112.862,77.578 113.000,77.804 113.000 C 78.048 113.000,78.094 112.900,78.036 112.500 C 77.992 112.200,78.036 112.000,78.148 112.000 C 78.250 112.000,78.333 112.225,78.333 112.500 C 78.333 113.201,78.792 113.166,78.879 112.458 L 78.947 111.917 78.973 112.458 C 78.993 112.862,79.078 113.000,79.304 113.000 C 79.548 113.000,79.594 112.900,79.536 112.500 C 79.492 112.200,79.536 112.000,79.648 112.000 C 79.750 112.000,79.833 112.225,79.833 112.500 C 79.833 113.201,80.292 113.166,80.379 112.458 L 80.447 111.917 80.473 112.458 C 80.499 112.973,80.532 113.000,81.158 113.000 L 81.815 113.000 81.877 112.208 L 81.940 111.417 81.970 112.208 C 82.006 113.153,82.437 113.340,82.546 112.458 L 82.613 111.917 82.640 112.458 C 82.660 112.874,82.742 113.000,82.989 113.000 C 83.229 113.000,83.330 112.860,83.379 112.458 L 83.447 111.917 83.473 112.458 C 83.490 112.806,83.586 113.000,83.739 113.000 C 83.885 113.000,84.005 112.787,84.046 112.458 L 84.113 111.917 84.140 112.458 C 84.160 112.874,84.242 113.000,84.489 113.000 C 84.729 113.000,84.830 112.860,84.879 112.458 L 84.947 111.917 84.973 112.458 C 84.990 112.806,85.086 113.000,85.239 113.000 C 85.385 113.000,85.505 112.787,85.546 112.458 L 85.613 111.917 85.640 112.458 C 85.660 112.874,85.742 113.000,85.989 113.000 C 86.229 113.000,86.330 112.860,86.379 112.458 L 86.447 111.917 86.473 112.458 C 86.490 112.806,86.586 113.000,86.739 113.000 C 86.885 113.000,87.005 112.787,87.046 112.458 L 87.113 111.917 87.140 112.458 C 87.165 112.973,87.199 113.000,87.823 113.000 C 88.438 113.000,88.483 112.966,88.546 112.458 L 88.613 111.917 88.640 112.458 C 88.681 113.294,89.167 113.188,89.167 112.343 C 89.167 111.982,89.242 111.640,89.333 111.583 C 89.435 111.520,89.500 111.776,89.500 112.240 C 89.500 113.159,89.937 113.334,90.046 112.458 L 90.113 111.917 90.140 112.458 C 90.165 112.973,90.199 113.000,90.823 113.000 C 91.438 113.000,91.483 112.966,91.546 112.458 L 91.613 111.917 91.640 112.458 C 91.676 113.180,92.167 113.219,92.167 112.500 C 92.167 112.225,92.250 112.000,92.352 112.000 C 92.464 112.000,92.508 112.200,92.464 112.500 C 92.407 112.894,92.453 113.000,92.685 113.000 C 92.892 113.000,92.999 112.839,93.046 112.458 L 93.113 111.917 93.140 112.458 C 93.165 112.973,93.199 113.000,93.823 113.000 C 94.438 113.000,94.483 112.966,94.546 112.458 L 94.613 111.917 94.640 112.458 C 94.665 112.973,94.699 113.000,95.323 113.000 C 95.938 113.000,95.983 112.966,96.046 112.458 L 96.113 111.917 96.140 112.458 C 96.185 113.367,96.667 113.167,96.667 112.240 C 96.667 111.776,96.732 111.520,96.833 111.583 C 96.925 111.640,97.000 111.982,97.000 112.343 L 97.000 113.000 101.417 113.000 L 105.833 113.000 105.833 108.454 L 105.833 103.908 105.186 103.970 C 104.830 104.004,104.488 103.949,104.426 103.849 C 104.351 103.727,104.566 103.667,105.073 103.667 C 106.049 103.667,106.159 103.221,105.208 103.121 L 104.583 103.056 105.208 103.028 C 105.820 103.001,105.833 102.986,105.833 102.343 C 105.833 101.707,105.814 101.685,105.208 101.621 L 104.583 101.556 105.208 101.528 C 105.706 101.506,105.833 101.434,105.833 101.177 C 105.833 100.926,105.693 100.839,105.208 100.788 L 104.583 100.723 105.208 100.695 C 105.820 100.667,105.833 100.653,105.833 100.010 C 105.833 99.374,105.814 99.351,105.208 99.288 L 104.583 99.223 105.208 99.195 C 105.628 99.176,105.833 99.088,105.833 98.927 C 105.833 98.772,105.611 98.664,105.208 98.621 L 104.583 98.556 105.208 98.528 C 105.820 98.501,105.833 98.486,105.833 97.843 C 105.833 97.207,105.814 97.185,105.208 97.121 L 104.583 97.056 105.208 97.028 C 106.177 96.985,106.063 96.500,105.083 96.500 C 104.671 96.500,104.333 96.425,104.333 96.333 C 104.333 96.242,104.671 96.167,105.083 96.167 C 106.050 96.167,106.153 95.720,105.208 95.621 L 104.583 95.556 105.208 95.528 C 105.820 95.501,105.833 95.486,105.833 94.843 C 105.833 94.207,105.814 94.185,105.208 94.121 L 104.583 94.056 105.208 94.028 C 105.996 93.993,106.113 93.500,105.333 93.500 C 105.058 93.500,104.833 93.416,104.833 93.314 C 104.833 93.203,105.033 93.158,105.333 93.202 C 105.815 93.273,105.833 93.252,105.833 92.638 C 105.833 92.018,105.817 92.000,105.240 92.000 C 104.852 92.000,104.686 91.937,104.760 91.817 C 104.822 91.717,105.089 91.666,105.353 91.705 C 105.728 91.760,105.833 91.711,105.833 91.481 C 105.833 91.264,105.670 91.170,105.208 91.121 L 104.583 91.056 105.208 91.028 C 105.820 91.001,105.833 90.986,105.833 90.343 C 105.833 89.707,105.814 89.685,105.208 89.621 L 104.583 89.556 105.208 89.528 C 106.173 89.485,106.042 89.035,105.042 88.956 L 104.250 88.893 105.042 88.863 L 105.833 88.833 105.833 88.167 C 105.833 87.514,105.821 87.500,105.240 87.500 C 104.852 87.500,104.686 87.437,104.760 87.317 C 104.822 87.217,105.089 87.166,105.353 87.205 C 105.717 87.259,105.833 87.209,105.833 87.000 C 105.833 86.791,105.717 86.741,105.353 86.795 C 105.089 86.834,104.822 86.783,104.760 86.683 C 104.686 86.563,104.852 86.500,105.240 86.500 C 106.076 86.500,106.050 86.043,105.208 85.955 L 104.583 85.889 105.208 85.861 C 106.057 85.823,106.124 85.224,105.292 85.121 L 104.750 85.053 105.292 85.027 C 106.076 84.988,106.011 84.539,105.208 84.455 L 104.583 84.389 105.208 84.361 C 105.822 84.334,105.833 84.321,105.833 83.667 L 105.833 83.000 101.333 83.000 L 96.833 83.000 96.833 84.740 M97.792 83.282 C 97.631 83.323,97.369 83.323,97.208 83.282 C 97.048 83.240,97.179 83.205,97.500 83.205 C 97.821 83.205,97.952 83.240,97.792 83.282 M97.792 83.615 C 97.631 83.657,97.369 83.657,97.208 83.615 C 97.048 83.573,97.179 83.539,97.500 83.539 C 97.821 83.539,97.952 83.573,97.792 83.615 M105.667 83.667 C 105.667 83.758,105.479 83.833,105.250 83.833 C 105.021 83.833,104.833 83.758,104.833 83.667 C 104.833 83.575,105.021 83.500,105.250 83.500 C 105.479 83.500,105.667 83.575,105.667 83.667 M97.792 83.948 C 97.631 83.990,97.369 83.990,97.208 83.948 C 97.048 83.906,97.179 83.872,97.500 83.872 C 97.821 83.872,97.952 83.906,97.792 83.948 M98.211 84.284 C 98.006 84.324,97.631 84.325,97.377 84.286 C 97.124 84.248,97.292 84.216,97.750 84.214 C 98.208 84.213,98.416 84.244,98.211 84.284 M73.573 85.042 L 73.083 85.583 73.625 85.094 C 73.923 84.825,74.167 84.581,74.167 84.552 C 74.167 84.423,74.029 84.537,73.573 85.042 M98.000 84.833 C 98.000 85.093,97.889 85.167,97.500 85.167 C 97.111 85.167,97.000 85.093,97.000 84.833 C 97.000 84.574,97.111 84.500,97.500 84.500 C 97.889 84.500,98.000 84.574,98.000 84.833 M97.792 85.448 C 97.631 85.490,97.369 85.490,97.208 85.448 C 97.048 85.406,97.179 85.372,97.500 85.372 C 97.821 85.372,97.952 85.406,97.792 85.448 M98.417 85.843 C 97.495 86.034,97.000 86.030,97.000 85.833 C 97.000 85.738,97.446 85.675,98.042 85.686 C 99.037 85.704,99.054 85.711,98.417 85.843 M97.792 86.282 C 97.631 86.323,97.369 86.323,97.208 86.282 C 97.048 86.240,97.179 86.205,97.500 86.205 C 97.821 86.205,97.952 86.240,97.792 86.282 M97.792 86.948 C 97.631 86.990,97.369 86.990,97.208 86.948 C 97.048 86.906,97.179 86.872,97.500 86.872 C 97.821 86.872,97.952 86.906,97.792 86.948 M98.250 87.333 C 97.784 87.534,97.000 87.534,97.000 87.333 C 97.000 87.242,97.356 87.172,97.792 87.178 C 98.387 87.187,98.501 87.226,98.250 87.333 M97.792 87.782 C 97.631 87.823,97.369 87.823,97.208 87.782 C 97.048 87.740,97.179 87.705,97.500 87.705 C 97.821 87.705,97.952 87.740,97.792 87.782 M98.000 88.250 C 98.000 88.417,98.167 88.500,98.500 88.500 C 98.775 88.500,99.000 88.575,99.000 88.667 C 99.000 88.758,98.898 88.833,98.773 88.833 C 98.649 88.833,98.199 88.881,97.773 88.939 L 97.000 89.045 97.000 88.523 C 97.000 88.053,97.051 88.000,97.500 88.000 C 97.833 88.000,98.000 88.083,98.000 88.250 M97.792 89.282 C 97.631 89.323,97.369 89.323,97.208 89.282 C 97.048 89.240,97.179 89.205,97.500 89.205 C 97.821 89.205,97.952 89.240,97.792 89.282 M97.792 89.615 C 97.631 89.657,97.369 89.657,97.208 89.615 C 97.048 89.573,97.179 89.539,97.500 89.539 C 97.821 89.539,97.952 89.573,97.792 89.615 M98.250 90.000 C 98.501 90.108,98.387 90.146,97.792 90.155 C 97.356 90.161,97.000 90.092,97.000 90.000 C 97.000 89.800,97.784 89.800,98.250 90.000 M97.792 90.448 C 97.631 90.490,97.369 90.490,97.208 90.448 C 97.048 90.406,97.179 90.372,97.500 90.372 C 97.821 90.372,97.952 90.406,97.792 90.448 M98.000 91.000 C 98.000 91.259,97.889 91.333,97.500 91.333 C 97.111 91.333,97.000 91.259,97.000 91.000 C 97.000 90.741,97.111 90.667,97.500 90.667 C 97.889 90.667,98.000 90.741,98.000 91.000 M98.542 91.621 C 98.244 91.658,97.756 91.658,97.458 91.621 C 97.160 91.584,97.404 91.553,98.000 91.553 C 98.596 91.553,98.840 91.584,98.542 91.621 M55.324 92.292 L 54.750 92.917 55.375 92.342 C 55.957 91.808,56.077 91.667,55.949 91.667 C 55.922 91.667,55.640 91.948,55.324 92.292 M97.792 91.948 C 97.631 91.990,97.369 91.990,97.208 91.948 C 97.048 91.906,97.179 91.872,97.500 91.872 C 97.821 91.872,97.952 91.906,97.792 91.948 M97.792 92.282 C 97.631 92.323,97.369 92.323,97.208 92.282 C 97.048 92.240,97.179 92.205,97.500 92.205 C 97.821 92.205,97.952 92.240,97.792 92.282 M98.000 92.738 C 98.000 92.869,98.131 93.010,98.292 93.052 C 98.452 93.094,98.227 93.137,97.792 93.147 C 97.105 93.164,97.000 93.123,97.000 92.833 C 97.000 92.574,97.111 92.500,97.500 92.500 C 97.822 92.500,98.000 92.585,98.000 92.738 M53.991 93.625 L 53.417 94.250 54.042 93.676 C 54.623 93.141,54.743 93.000,54.616 93.000 C 54.588 93.000,54.307 93.281,53.991 93.625 M98.000 93.667 C 98.000 93.926,97.889 94.000,97.500 94.000 C 97.111 94.000,97.000 93.926,97.000 93.667 C 97.000 93.407,97.111 93.333,97.500 93.333 C 97.889 93.333,98.000 93.407,98.000 93.667 M97.792 94.282 C 97.631 94.323,97.369 94.323,97.208 94.282 C 97.048 94.240,97.179 94.205,97.500 94.205 C 97.821 94.205,97.952 94.240,97.792 94.282 M52.000 95.583 C 51.317 96.271,50.796 96.833,50.842 96.833 C 50.888 96.833,51.484 96.271,52.167 95.583 C 52.850 94.896,53.371 94.333,53.325 94.333 C 53.279 94.333,52.683 94.896,52.000 95.583 M97.792 94.948 C 97.631 94.990,97.369 94.990,97.208 94.948 C 97.048 94.906,97.179 94.872,97.500 94.872 C 97.821 94.872,97.952 94.906,97.792 94.948 M98.000 95.333 C 98.000 95.425,97.775 95.500,97.500 95.500 C 97.225 95.500,97.000 95.425,97.000 95.333 C 97.000 95.242,97.225 95.167,97.500 95.167 C 97.775 95.167,98.000 95.242,98.000 95.333 M45.579 96.875 L 44.250 98.250 45.625 96.921 C 46.902 95.686,47.076 95.500,46.954 95.500 C 46.929 95.500,46.311 96.119,45.579 96.875 M97.792 95.782 C 97.631 95.823,97.369 95.823,97.208 95.782 C 97.048 95.740,97.179 95.705,97.500 95.705 C 97.821 95.705,97.952 95.740,97.792 95.782 M98.211 96.117 C 98.006 96.157,97.631 96.158,97.377 96.120 C 97.124 96.081,97.292 96.049,97.750 96.048 C 98.208 96.046,98.416 96.078,98.211 96.117 M98.000 96.667 C 98.000 96.926,97.889 97.000,97.500 97.000 C 97.111 97.000,97.000 96.926,97.000 96.667 C 97.000 96.407,97.111 96.333,97.500 96.333 C 97.889 96.333,98.000 96.407,98.000 96.667 M97.792 97.282 C 97.631 97.323,97.369 97.323,97.208 97.282 C 97.048 97.240,97.179 97.205,97.500 97.205 C 97.821 97.205,97.952 97.240,97.792 97.282 M98.542 97.621 C 98.244 97.658,97.756 97.658,97.458 97.621 C 97.160 97.584,97.404 97.553,98.000 97.553 C 98.596 97.553,98.840 97.584,98.542 97.621 M105.667 97.833 C 105.667 97.925,105.479 98.000,105.250 98.000 C 105.021 98.000,104.833 97.925,104.833 97.833 C 104.833 97.742,105.021 97.667,105.250 97.667 C 105.479 97.667,105.667 97.742,105.667 97.833 M98.000 98.000 C 98.000 98.092,97.775 98.167,97.500 98.167 C 97.225 98.167,97.000 98.092,97.000 98.000 C 97.000 97.908,97.225 97.833,97.500 97.833 C 97.775 97.833,98.000 97.908,98.000 98.000 M97.792 98.448 C 97.631 98.490,97.369 98.490,97.208 98.448 C 97.048 98.406,97.179 98.372,97.500 98.372 C 97.821 98.372,97.952 98.406,97.792 98.448 M98.000 98.833 C 98.000 98.925,98.131 99.009,98.292 99.019 C 98.569 99.038,98.569 99.042,98.292 99.115 C 98.131 99.157,98.000 99.298,98.000 99.429 C 98.000 99.582,97.822 99.667,97.500 99.667 C 97.056 99.667,97.000 99.611,97.000 99.167 C 97.000 98.722,97.056 98.667,97.500 98.667 C 97.775 98.667,98.000 98.742,98.000 98.833 M97.792 99.948 C 97.631 99.990,97.369 99.990,97.208 99.948 C 97.048 99.906,97.179 99.872,97.500 99.872 C 97.821 99.872,97.952 99.906,97.792 99.948 M97.792 100.282 C 97.631 100.323,97.369 100.323,97.208 100.282 C 97.048 100.240,97.179 100.205,97.500 100.205 C 97.821 100.205,97.952 100.240,97.792 100.282 M98.467 100.621 C 98.014 100.669,97.876 100.749,97.943 100.926 C 98.012 101.104,97.901 101.167,97.518 101.167 C 97.111 101.167,97.000 101.095,97.000 100.833 C 97.000 100.533,97.102 100.503,98.042 100.528 C 98.723 100.546,98.870 100.578,98.467 100.621 M97.792 101.448 C 97.631 101.490,97.369 101.490,97.208 101.448 C 97.048 101.406,97.179 101.372,97.500 101.372 C 97.821 101.372,97.952 101.406,97.792 101.448 M98.123 101.771 C 98.688 101.922,98.400 102.167,97.657 102.167 C 97.184 102.167,97.000 102.097,97.000 101.917 C 97.000 101.654,97.463 101.594,98.123 101.771 M97.792 102.615 C 97.631 102.657,97.369 102.657,97.208 102.615 C 97.048 102.573,97.179 102.539,97.500 102.539 C 97.821 102.539,97.952 102.573,97.792 102.615 M97.792 102.948 C 97.631 102.990,97.369 102.990,97.208 102.948 C 97.048 102.906,97.179 102.872,97.500 102.872 C 97.821 102.872,97.952 102.906,97.792 102.948 M98.986 103.433 C 99.124 103.567,98.900 103.637,97.958 103.753 C 97.043 103.866,97.000 103.855,97.000 103.500 C 97.000 103.158,98.644 103.102,98.986 103.433 M97.792 104.115 C 97.631 104.157,97.369 104.157,97.208 104.115 C 97.048 104.073,97.179 104.039,97.500 104.039 C 97.821 104.039,97.952 104.073,97.792 104.115 M98.000 104.571 C 98.000 104.702,98.131 104.843,98.292 104.885 C 98.452 104.927,98.227 104.970,97.792 104.981 C 97.105 104.997,97.000 104.956,97.000 104.667 C 97.000 104.407,97.111 104.333,97.500 104.333 C 97.822 104.333,98.000 104.418,98.000 104.571 M78.500 105.677 C 78.500 105.974,78.431 106.143,78.333 106.083 C 78.242 106.027,78.167 105.797,78.167 105.573 C 78.167 105.350,78.242 105.167,78.333 105.167 C 78.425 105.167,78.500 105.396,78.500 105.677 M38.359 109.390 L 37.820 109.946 37.875 111.515 L 37.931 113.083 37.965 111.508 C 37.999 109.982,38.017 109.915,38.533 109.383 C 38.826 109.081,39.028 108.833,38.982 108.833 C 38.936 108.833,38.656 109.084,38.359 109.390 M54.500 112.417 C 54.500 112.646,54.425 112.833,54.333 112.833 C 54.242 112.833,54.167 112.646,54.167 112.417 C 54.167 112.188,54.242 112.000,54.333 112.000 C 54.425 112.000,54.500 112.188,54.500 112.417 M62.667 112.417 C 62.667 112.646,62.592 112.833,62.500 112.833 C 62.408 112.833,62.333 112.646,62.333 112.417 C 62.333 112.188,62.408 112.000,62.500 112.000 C 62.592 112.000,62.667 112.188,62.667 112.417 M94.000 112.417 C 94.000 112.646,93.925 112.833,93.833 112.833 C 93.742 112.833,93.667 112.646,93.667 112.417 C 93.667 112.188,93.742 112.000,93.833 112.000 C 93.925 112.000,94.000 112.188,94.000 112.417 " stroke="none" fill="#d3d3d4" fill-rule="evenodd"></path><path id="path2" d="M69.833 30.225 C 65.851 32.647,29.792 54.528,28.792 55.129 L 27.833 55.706 27.833 61.287 C 27.833 65.702,27.877 66.852,28.043 66.789 C 28.258 66.706,36.720 61.634,37.542 61.096 L 38.000 60.795 38.000 82.564 C 38.000 94.537,38.062 104.333,38.137 104.333 C 38.212 104.333,40.424 102.128,43.053 99.432 L 47.832 94.531 47.874 74.644 L 47.917 54.757 59.385 47.880 L 70.853 41.002 74.135 43.309 C 75.940 44.577,79.817 47.290,82.750 49.338 C 93.743 57.010,111.424 69.381,111.625 69.541 C 111.791 69.674,111.833 68.556,111.830 64.062 L 111.827 58.417 108.038 55.757 C 97.222 48.163,94.869 46.510,90.500 43.445 C 85.065 39.631,81.017 36.784,76.542 33.632 C 72.622 30.870,70.881 29.667,70.808 29.667 C 70.776 29.667,70.337 29.918,69.833 30.225 " stroke="none" fill="#ec1c2c" fill-rule="evenodd"></path><path id="path3" d="M68.750 30.104 C 67.650 30.791,66.600 31.423,66.417 31.509 C 66.047 31.683,65.462 32.038,65.333 32.167 C 65.207 32.293,64.662 32.613,63.875 33.023 C 63.485 33.226,63.167 33.454,63.167 33.530 C 63.167 33.605,63.090 33.667,62.997 33.667 C 62.865 33.667,57.209 37.037,56.000 37.837 C 55.862 37.928,55.637 38.052,55.500 38.114 C 55.362 38.175,55.212 38.273,55.167 38.331 C 55.121 38.389,54.596 38.716,54.000 39.058 C 53.404 39.400,52.392 40.012,51.750 40.419 C 51.108 40.825,50.471 41.210,50.333 41.274 C 50.196 41.338,49.668 41.664,49.161 41.997 C 48.653 42.331,48.128 42.654,47.994 42.716 C 47.860 42.777,47.075 43.238,46.250 43.739 C 45.425 44.240,44.274 44.935,43.692 45.283 C 43.111 45.632,42.436 46.046,42.192 46.204 C 41.949 46.361,41.487 46.645,41.167 46.833 C 40.846 47.022,40.358 47.322,40.083 47.500 C 39.808 47.678,39.283 47.985,38.917 48.181 C 38.550 48.377,38.011 48.717,37.719 48.936 C 37.428 49.154,37.148 49.333,37.097 49.333 C 36.937 49.333,35.253 50.397,35.194 50.535 C 35.164 50.607,35.069 50.667,34.983 50.667 C 34.898 50.667,34.223 51.042,33.484 51.500 C 32.745 51.958,32.112 52.333,32.078 52.333 C 32.045 52.333,31.683 52.558,31.276 52.833 C 30.868 53.108,30.452 53.333,30.351 53.333 C 30.250 53.333,30.167 53.400,30.167 53.481 C 30.167 53.562,30.035 53.673,29.875 53.729 C 29.715 53.784,29.358 53.976,29.083 54.156 C 28.808 54.335,28.265 54.649,27.875 54.854 L 27.167 55.226 27.167 61.613 C 27.167 65.126,27.223 67.997,27.292 67.993 C 27.360 67.989,27.717 67.805,28.083 67.584 C 28.450 67.364,29.069 67.016,29.458 66.812 C 29.848 66.608,30.167 66.379,30.167 66.304 C 30.167 66.228,30.241 66.167,30.332 66.167 C 30.464 66.167,34.155 63.996,35.167 63.323 C 35.304 63.232,35.548 63.113,35.708 63.059 C 35.869 63.005,36.000 62.895,36.000 62.814 C 36.000 62.733,36.103 62.667,36.230 62.667 C 36.356 62.667,36.553 62.554,36.667 62.417 C 37.349 61.595,37.333 61.088,37.333 84.000 C 37.333 99.629,37.385 105.833,37.515 105.833 C 37.615 105.833,40.124 103.377,43.091 100.375 L 48.486 94.917 48.493 74.998 L 48.500 55.079 49.125 54.783 C 49.469 54.620,50.275 54.156,50.917 53.752 C 52.271 52.898,52.431 52.801,53.947 51.931 C 54.572 51.572,55.121 51.227,55.167 51.164 C 55.212 51.101,55.327 51.020,55.421 50.983 C 55.600 50.914,58.402 49.266,59.078 48.833 C 59.292 48.696,59.981 48.290,60.609 47.931 C 61.237 47.572,61.788 47.227,61.833 47.164 C 61.879 47.101,61.994 47.020,62.088 46.983 C 62.267 46.914,65.069 45.266,65.744 44.833 C 65.959 44.696,66.648 44.290,67.276 43.931 C 67.903 43.572,68.454 43.231,68.500 43.172 C 68.546 43.114,68.846 42.934,69.167 42.774 C 69.487 42.613,69.993 42.329,70.290 42.143 L 70.830 41.804 71.957 42.621 C 72.576 43.070,73.327 43.580,73.625 43.755 C 73.923 43.929,74.167 44.131,74.167 44.203 C 74.167 44.275,74.242 44.333,74.335 44.333 C 74.427 44.333,75.061 44.746,75.743 45.250 C 76.424 45.754,77.061 46.167,77.158 46.167 C 77.254 46.167,77.333 46.240,77.333 46.330 C 77.333 46.420,77.633 46.646,78.000 46.833 C 78.367 47.020,78.667 47.247,78.667 47.337 C 78.667 47.427,78.746 47.500,78.842 47.500 C 78.939 47.500,79.576 47.913,80.257 48.417 C 80.939 48.921,81.566 49.333,81.651 49.333 C 81.736 49.333,81.831 49.397,81.861 49.475 C 81.892 49.553,82.217 49.813,82.583 50.052 C 82.950 50.292,83.569 50.716,83.958 50.994 C 85.786 52.300,86.140 52.547,86.950 53.080 C 87.426 53.394,88.378 54.067,89.066 54.576 C 89.753 55.084,90.388 55.500,90.477 55.500 C 90.566 55.500,90.664 55.561,90.694 55.635 C 90.725 55.709,91.162 56.049,91.667 56.390 C 92.559 56.994,94.412 58.281,95.083 58.763 C 95.267 58.895,96.279 59.603,97.333 60.337 C 98.388 61.070,99.400 61.783,99.583 61.921 C 100.856 62.879,103.703 64.833,103.824 64.833 C 103.906 64.833,103.997 64.894,104.028 64.968 C 104.058 65.042,104.496 65.382,105.000 65.723 C 105.854 66.302,107.651 67.549,108.417 68.095 C 110.978 69.922,112.097 70.667,112.280 70.667 C 112.458 70.667,112.500 69.473,112.500 64.331 L 112.500 57.995 111.958 57.670 C 111.660 57.491,111.267 57.228,111.083 57.086 C 110.022 56.264,106.965 54.167,106.828 54.167 C 106.739 54.167,106.667 54.093,106.667 54.003 C 106.667 53.914,106.367 53.687,106.000 53.500 C 105.633 53.313,105.333 53.086,105.333 52.997 C 105.333 52.907,105.254 52.833,105.158 52.833 C 105.061 52.833,104.424 52.421,103.743 51.917 C 103.061 51.413,102.434 51.000,102.349 51.000 C 102.264 51.000,102.169 50.936,102.139 50.858 C 102.108 50.780,101.783 50.519,101.417 50.277 C 100.682 49.792,100.607 49.740,98.334 48.126 C 97.463 47.507,96.659 46.926,96.549 46.834 C 96.438 46.742,96.304 46.667,96.250 46.667 C 96.196 46.667,96.062 46.588,95.951 46.493 C 95.841 46.397,94.962 45.761,94.000 45.079 C 93.037 44.397,92.159 43.762,92.049 43.669 C 91.938 43.576,91.804 43.500,91.750 43.500 C 91.696 43.500,91.562 43.426,91.451 43.335 C 91.075 43.028,89.754 42.076,88.667 41.328 C 88.071 40.919,87.546 40.538,87.500 40.483 C 87.454 40.428,87.097 40.183,86.706 39.938 C 86.316 39.693,85.866 39.386,85.706 39.255 C 85.378 38.985,84.295 38.223,82.583 37.059 C 81.942 36.623,81.392 36.206,81.361 36.133 C 81.331 36.060,81.243 36.000,81.167 36.000 C 81.052 36.000,77.828 33.770,76.998 33.115 C 76.859 33.006,76.413 32.700,76.007 32.434 C 75.600 32.169,75.189 31.882,75.092 31.798 C 74.756 31.502,70.916 28.845,70.833 28.851 C 70.787 28.854,69.850 29.418,68.750 30.104 M74.552 32.143 C 76.494 33.506,79.021 35.281,80.167 36.089 C 83.405 38.371,87.814 41.468,95.250 46.682 C 99.008 49.317,104.258 53.001,106.917 54.867 L 111.750 58.261 111.794 63.964 C 111.818 67.100,111.801 69.667,111.756 69.667 C 111.711 69.667,111.054 69.228,110.296 68.692 C 109.537 68.156,106.142 65.782,102.750 63.415 C 92.867 56.519,87.886 53.036,85.833 51.586 C 84.779 50.842,82.904 49.530,81.667 48.672 C 79.315 47.042,75.555 44.411,72.799 42.469 C 71.909 41.841,71.081 41.290,70.960 41.243 C 70.838 41.197,65.641 44.217,59.411 47.954 L 48.083 54.750 48.040 74.667 L 47.997 94.583 42.999 99.583 L 38.001 104.583 38.000 82.779 L 38.000 60.976 37.042 61.520 C 36.515 61.820,34.262 63.176,32.036 64.533 C 29.809 65.890,27.916 67.000,27.827 67.000 C 27.727 67.000,27.667 64.861,27.667 61.346 L 27.667 55.691 31.375 53.454 C 37.041 50.034,56.093 38.484,66.917 31.906 C 68.933 30.680,70.682 29.675,70.802 29.672 C 70.922 29.669,72.610 30.781,74.552 32.143 M74.167 54.255 C 74.029 54.282,73.242 54.391,72.417 54.497 C 69.199 54.910,67.297 55.270,65.679 55.771 C 65.273 55.897,64.825 56.000,64.684 56.000 C 64.543 56.000,63.769 56.205,62.964 56.455 L 61.500 56.910 61.500 58.808 C 61.500 60.699,61.501 60.705,61.875 60.590 C 62.306 60.457,62.750 60.354,65.167 59.826 C 68.807 59.032,76.166 59.360,78.391 60.416 C 80.187 61.268,80.454 62.871,79.034 64.285 C 78.869 64.449,78.403 64.996,77.998 65.500 C 77.593 66.004,77.103 66.583,76.909 66.786 C 75.983 67.757,76.006 69.635,76.957 70.706 C 77.203 70.983,75.897 72.773,74.249 74.416 C 74.065 74.600,73.620 75.087,73.262 75.500 C 72.903 75.912,72.070 76.850,71.411 77.583 C 70.753 78.317,69.960 79.216,69.649 79.582 C 68.348 81.112,68.508 81.099,67.562 79.751 C 67.342 79.439,66.448 80.302,52.331 94.459 L 37.333 109.498 37.333 111.583 L 37.333 113.667 71.917 113.667 L 106.500 113.667 106.500 98.004 L 106.500 82.341 103.429 82.295 L 100.358 82.250 101.192 81.333 C 101.651 80.829,102.939 79.456,104.055 78.282 C 106.767 75.428,106.893 74.891,105.221 73.304 C 104.707 72.816,104.057 72.199,103.777 71.932 C 103.327 71.504,103.161 71.452,102.339 71.481 C 99.645 71.578,97.845 69.606,97.333 65.994 C 97.064 64.097,95.690 62.404,92.333 59.833 C 91.921 59.517,91.546 59.216,91.500 59.163 C 91.454 59.111,90.817 58.641,90.083 58.119 C 89.350 57.597,88.659 57.094,88.549 57.001 C 88.438 56.909,88.308 56.833,88.260 56.833 C 88.212 56.833,87.702 56.550,87.128 56.203 C 85.333 55.120,84.716 54.937,81.136 54.422 C 79.606 54.203,74.993 54.092,74.167 54.255 M81.619 55.086 C 85.314 55.604,87.323 56.605,91.667 60.089 C 95.956 63.530,96.428 64.144,96.910 66.917 C 97.461 70.086,99.383 72.000,102.013 72.000 L 102.999 72.000 104.270 73.207 C 106.158 75.001,106.163 75.195,104.364 77.085 C 98.815 82.915,99.526 82.555,97.421 80.601 L 95.925 79.212 95.828 77.891 C 95.713 76.327,95.398 75.783,93.465 73.805 C 91.415 71.708,88.963 72.040,85.745 74.853 C 84.681 75.782,84.185 75.937,83.420 75.574 C 82.592 75.181,82.682 75.108,79.080 79.083 C 77.253 81.100,75.718 82.787,75.669 82.833 C 75.064 83.394,73.167 85.667,73.167 85.831 C 73.167 85.950,73.448 86.292,73.792 86.590 L 74.417 87.132 74.008 87.691 C 73.783 87.999,71.087 91.287,68.017 95.000 C 62.334 101.872,60.427 104.187,60.020 104.708 C 59.804 104.986,60.699 105.000,78.313 105.000 L 96.833 105.000 96.833 94.000 L 96.833 83.000 101.333 83.000 L 105.833 83.000 105.833 98.000 L 105.833 113.000 71.827 113.000 L 37.821 113.000 37.869 111.432 L 37.917 109.865 52.477 95.182 C 60.485 87.107,67.123 80.503,67.227 80.506 C 67.331 80.510,67.630 80.820,67.890 81.196 L 68.363 81.880 68.836 81.398 C 69.848 80.366,78.000 71.079,78.000 70.958 C 78.000 70.888,77.844 70.700,77.654 70.540 C 76.301 69.408,76.495 68.200,78.376 66.025 C 82.317 61.468,80.943 59.514,73.310 58.818 C 70.436 58.555,64.774 59.024,63.094 59.663 C 62.093 60.043,62.000 59.953,62.000 58.607 L 62.000 57.380 63.125 57.027 C 65.444 56.299,69.566 55.432,72.667 55.019 C 74.519 54.772,79.659 54.810,81.619 55.086 M92.103 73.375 C 92.378 73.581,93.007 74.200,93.499 74.750 C 93.992 75.300,94.456 75.775,94.531 75.806 C 94.605 75.836,94.667 75.961,94.667 76.083 C 94.667 76.206,94.746 76.332,94.842 76.364 C 95.082 76.444,95.325 77.567,95.329 78.618 C 95.334 79.556,95.369 79.602,97.653 81.668 L 98.389 82.333 97.278 82.333 L 96.167 82.333 96.167 93.333 L 96.167 104.333 78.667 104.333 C 69.042 104.333,61.167 104.301,61.167 104.262 C 61.167 104.223,61.268 104.089,61.393 103.964 C 61.517 103.840,61.981 103.291,62.424 102.744 C 62.866 102.197,63.289 101.725,63.364 101.694 C 63.439 101.664,63.500 101.533,63.500 101.403 C 63.500 101.273,63.560 101.167,63.632 101.167 C 63.705 101.167,64.037 100.810,64.371 100.375 C 64.704 99.940,65.142 99.406,65.345 99.190 C 65.548 98.974,66.079 98.336,66.525 97.773 C 66.971 97.210,67.469 96.600,67.631 96.417 C 67.793 96.233,68.261 95.672,68.671 95.169 C 69.081 94.666,69.540 94.104,69.692 93.919 C 69.995 93.549,71.062 92.267,71.583 91.647 C 71.767 91.429,72.254 90.838,72.667 90.333 C 73.762 88.993,74.049 88.660,74.389 88.329 C 74.966 87.769,74.951 86.755,74.358 86.213 L 73.841 85.741 74.629 84.904 C 75.062 84.444,75.867 83.549,76.417 82.916 C 76.967 82.282,77.647 81.536,77.928 81.257 C 78.210 80.978,79.027 80.075,79.744 79.250 C 80.461 78.425,81.300 77.511,81.607 77.220 C 81.915 76.928,82.167 76.647,82.167 76.595 C 82.167 76.224,82.824 75.874,83.112 76.091 C 83.840 76.644,85.262 76.238,86.326 75.174 C 88.082 73.418,90.963 72.521,92.103 73.375 " stroke="none" fill="#fafafa" fill-rule="evenodd"></path><path id="path4" d="M158.875 78.124 C 159.677 78.155,160.990 78.155,161.792 78.124 C 162.594 78.094,161.938 78.069,160.333 78.069 C 158.729 78.069,158.073 78.094,158.875 78.124 M251.576 86.833 C 251.576 90.729,251.598 92.323,251.625 90.375 C 251.651 88.427,251.651 85.240,251.625 83.292 C 251.598 81.344,251.576 82.938,251.576 86.833 M275.074 84.583 C 275.074 87.242,275.097 88.306,275.125 86.948 C 275.153 85.590,275.153 83.415,275.125 82.115 C 275.096 80.814,275.073 81.925,275.074 84.583 M97.208 83.948 C 97.369 83.990,97.631 83.990,97.792 83.948 C 97.952 83.906,97.821 83.872,97.500 83.872 C 97.179 83.872,97.048 83.906,97.208 83.948 M306.231 86.917 C 306.232 88.108,306.258 88.574,306.290 87.951 C 306.323 87.329,306.322 86.354,306.290 85.785 C 306.257 85.216,306.231 85.725,306.231 86.917 M276.896 86.833 C 276.896 87.888,276.923 88.319,276.956 87.792 C 276.990 87.265,276.990 86.402,276.956 85.875 C 276.923 85.348,276.896 85.779,276.896 86.833 M356.895 86.833 C 356.895 87.796,356.923 88.190,356.956 87.708 C 356.990 87.227,356.990 86.440,356.956 85.958 C 356.923 85.477,356.895 85.871,356.895 86.833 M208.892 86.833 C 208.892 87.612,208.920 87.931,208.955 87.542 C 208.990 87.152,208.990 86.515,208.955 86.125 C 208.920 85.735,208.892 86.054,208.892 86.833 M97.461 85.787 C 97.761 85.825,98.211 85.824,98.461 85.786 C 98.712 85.748,98.467 85.717,97.917 85.718 C 97.367 85.719,97.162 85.750,97.461 85.787 M97.208 86.615 C 97.369 86.657,97.631 86.657,97.792 86.615 C 97.952 86.573,97.821 86.539,97.500 86.539 C 97.179 86.539,97.048 86.573,97.208 86.615 M104.794 88.951 C 105.001 88.991,105.301 88.990,105.460 88.948 C 105.620 88.906,105.450 88.874,105.083 88.875 C 104.717 88.877,104.586 88.911,104.794 88.951 M97.208 89.282 C 97.369 89.323,97.631 89.323,97.792 89.282 C 97.952 89.240,97.821 89.205,97.500 89.205 C 97.179 89.205,97.048 89.240,97.208 89.282 M97.208 91.948 C 97.369 91.990,97.631 91.990,97.792 91.948 C 97.952 91.906,97.821 91.872,97.500 91.872 C 97.179 91.872,97.048 91.906,97.208 91.948 M97.458 94.621 C 97.756 94.658,98.244 94.658,98.542 94.621 C 98.840 94.584,98.596 94.553,98.000 94.553 C 97.404 94.553,97.160 94.584,97.458 94.621 M97.208 97.282 C 97.369 97.323,97.631 97.323,97.792 97.282 C 97.952 97.240,97.821 97.205,97.500 97.205 C 97.179 97.205,97.048 97.240,97.208 97.282 M97.208 99.948 C 97.369 99.990,97.631 99.990,97.792 99.948 C 97.952 99.906,97.821 99.872,97.500 99.872 C 97.179 99.872,97.048 99.906,97.208 99.948 M253.738 104.750 C 253.738 106.767,253.762 107.569,253.791 106.532 C 253.820 105.496,253.820 103.846,253.791 102.866 C 253.762 101.885,253.738 102.733,253.738 104.750 M260.908 106.417 C 260.908 109.350,260.930 110.527,260.958 109.031 C 260.986 107.536,260.986 105.136,260.958 103.698 C 260.930 102.260,260.908 103.483,260.908 106.417 M307.385 102.083 C 307.386 102.633,307.417 102.838,307.454 102.539 C 307.491 102.239,307.490 101.789,307.452 101.539 C 307.414 101.288,307.384 101.533,307.385 102.083 M326.241 106.417 C 326.241 109.350,326.264 110.527,326.291 109.031 C 326.319 107.536,326.319 105.136,326.291 103.698 C 326.264 102.260,326.241 103.483,326.241 106.417 M97.208 102.615 C 97.369 102.657,97.631 102.657,97.792 102.615 C 97.952 102.573,97.821 102.539,97.500 102.539 C 97.179 102.539,97.048 102.573,97.208 102.615 M284.388 104.250 C 284.389 104.892,284.419 105.134,284.455 104.788 C 284.491 104.442,284.490 103.917,284.454 103.621 C 284.417 103.325,284.387 103.608,284.388 104.250 M104.794 103.785 C 105.001 103.824,105.301 103.823,105.460 103.781 C 105.620 103.739,105.450 103.707,105.083 103.709 C 104.717 103.711,104.586 103.745,104.794 103.785 M87.042 105.583 C 87.044 105.950,87.078 106.080,87.118 105.873 C 87.158 105.666,87.156 105.366,87.115 105.206 C 87.073 105.047,87.040 105.217,87.042 105.583 M92.383 105.833 C 92.383 106.337,92.415 106.544,92.453 106.292 C 92.491 106.040,92.491 105.627,92.453 105.375 C 92.415 105.123,92.383 105.329,92.383 105.833 M61.220 106.167 C 61.220 106.763,61.250 107.006,61.287 106.708 C 61.324 106.410,61.324 105.923,61.287 105.625 C 61.250 105.327,61.220 105.571,61.220 106.167 M62.712 105.833 C 62.712 106.246,62.745 106.415,62.784 106.208 C 62.824 106.002,62.824 105.665,62.784 105.458 C 62.745 105.252,62.712 105.421,62.712 105.833 M65.712 105.833 C 65.712 106.246,65.745 106.415,65.784 106.208 C 65.824 106.002,65.824 105.665,65.784 105.458 C 65.745 105.252,65.712 105.421,65.712 105.833 M74.545 105.833 C 74.545 106.246,74.578 106.415,74.618 106.208 C 74.657 106.002,74.657 105.665,74.618 105.458 C 74.578 105.252,74.545 105.421,74.545 105.833 M76.052 106.083 C 76.053 106.633,76.084 106.838,76.121 106.539 C 76.158 106.239,76.157 105.789,76.119 105.539 C 76.081 105.288,76.051 105.533,76.052 106.083 M79.052 106.083 C 79.053 106.633,79.084 106.838,79.121 106.539 C 79.158 106.239,79.157 105.789,79.119 105.539 C 79.081 105.288,79.051 105.533,79.052 106.083 M80.545 105.833 C 80.545 106.246,80.578 106.415,80.618 106.208 C 80.657 106.002,80.657 105.665,80.618 105.458 C 80.578 105.252,80.545 105.421,80.545 105.833 M96.885 106.083 C 96.886 106.633,96.917 106.838,96.954 106.539 C 96.991 106.239,96.990 105.789,96.952 105.539 C 96.914 105.288,96.884 105.533,96.885 106.083 M231.385 106.250 C 231.386 106.800,231.417 107.005,231.454 106.705 C 231.491 106.406,231.490 105.956,231.452 105.705 C 231.414 105.455,231.384 105.700,231.385 106.250 M284.389 108.500 C 284.389 109.188,284.419 109.469,284.455 109.125 C 284.491 108.781,284.491 108.219,284.455 107.875 C 284.419 107.531,284.389 107.813,284.389 108.500 M307.385 110.750 C 307.386 111.300,307.417 111.505,307.454 111.205 C 307.491 110.906,307.490 110.456,307.452 110.205 C 307.414 109.955,307.384 110.200,307.385 110.750 M59.542 112.250 C 59.544 112.617,59.578 112.747,59.618 112.540 C 59.658 112.332,59.656 112.032,59.615 111.873 C 59.573 111.714,59.540 111.883,59.542 112.250 M66.875 112.250 C 66.877 112.617,66.911 112.747,66.951 112.540 C 66.991 112.332,66.990 112.032,66.948 111.873 C 66.906 111.714,66.874 111.883,66.875 112.250 M74.375 112.250 C 74.377 112.617,74.411 112.747,74.451 112.540 C 74.491 112.332,74.490 112.032,74.448 111.873 C 74.406 111.714,74.374 111.883,74.375 112.250 M81.875 112.250 C 81.877 112.617,81.911 112.747,81.951 112.540 C 81.991 112.332,81.990 112.032,81.948 111.873 C 81.906 111.714,81.874 111.883,81.875 112.250 M89.375 112.250 C 89.377 112.617,89.411 112.747,89.451 112.540 C 89.491 112.332,89.490 112.032,89.448 111.873 C 89.406 111.714,89.374 111.883,89.375 112.250 M96.709 112.250 C 96.711 112.617,96.745 112.747,96.785 112.540 C 96.824 112.332,96.823 112.032,96.781 111.873 C 96.739 111.714,96.707 111.883,96.709 112.250 " stroke="none" fill="#949c9c" fill-rule="evenodd"></path></g></svg>